<?xml version="1.0" encoding="UTF-8" standalone="no"?>
<svg
   xmlns:dc="http://purl.org/dc/elements/1.1/"
   xmlns:cc="http://creativecommons.org/ns#"
   xmlns:rdf="http://www.w3.org/1999/02/22-rdf-syntax-ns#"
   xmlns:svg="http://www.w3.org/2000/svg"
   xmlns="http://www.w3.org/2000/svg"
   viewBox="0 0 783.17334 666.66669"
   height="666.66669"
   width="783.17334"
   xml:space="preserve"
   id="svg2"
   version="1.1"><metadata
     id="metadata8"><rdf:RDF><cc:Work
         rdf:about=""><dc:format>image/svg+xml</dc:format><dc:type
           rdf:resource="http://purl.org/dc/dcmitype/StillImage" /><dc:title></dc:title></cc:Work></rdf:RDF></metadata><defs
     id="defs6"><clipPath
       id="clipPath34"
       clipPathUnits="userSpaceOnUse"><path
         id="path32"
         d="M 5000,483.332 H 0 c 0,117.777 0,235.559 0,353.34 0,117.769 0,235.558 0,353.328 82.4063,0 164.781,0.63 247.188,1.76 v -155.82 c 0,-19.3 15.699,-35 35,-35 h 499.449 c -18.153,-45.729 -8.746,-99.94 28.199,-136.881 24.769,-24.77 57.312,-37.161 89.852,-37.161 32.527,-0.007 65.046,12.383 89.816,37.141 36.946,36.953 46.326,91.172 28.156,136.901 H 3686.93 L 3522.46,836.43 c -21.77,-21.75 -21.77,-57.008 0,-78.77 10.88,-10.879 25.14,-16.32 39.39,-16.32 14.25,0 28.51,5.441 39.39,16.32 l 243.23,243.28 h 867.72 c 19.29,0 35,15.7 35,35 v 155.91 c 84.27,-1.19 168.54,-1.85 252.81,-1.85 V 483.332 M 1363.27,973.609 c -55.85,0 -111.7,-21.308 -154.31,-63.918 -85.22,-85.222 -85.22,-223.39 0,-308.621 42.61,-42.609 98.46,-63.91 154.31,-63.91 55.85,0 111.7,21.301 154.31,63.91 85.22,85.231 85.22,223.399 0,308.621 -42.61,42.61 -98.46,63.918 -154.31,63.918 M 899.684,883.18 c -18.118,0 -36.235,6.902 -50.036,20.699 -26.617,26.613 -27.554,69.332 -2.824,97.061 h 105.625 c 24.77,-27.749 23.84,-70.471 -2.765,-97.081 -13.782,-13.777 -31.891,-20.679 -50,-20.679" /></clipPath><clipPath
       id="clipPath46"
       clipPathUnits="userSpaceOnUse"><path
         id="path44"
         d="m 3561.85,741.34 c -14.25,0 -28.51,5.441 -39.39,16.32 -21.77,21.762 -21.77,57.02 0,78.77 l 164.47,164.51 h 157.54 L 3601.24,757.66 c -10.88,-10.879 -25.14,-16.32 -39.39,-16.32" /></clipPath><clipPath
       id="clipPath58"
       clipPathUnits="userSpaceOnUse"><path
         id="path56"
         d="m 899.688,826.898 c -32.54,0 -65.083,12.391 -89.852,37.161 -36.945,36.941 -46.352,91.152 -28.199,136.881 h 65.187 c -24.73,-27.729 -23.793,-70.448 2.824,-97.061 13.801,-13.797 31.918,-20.699 50.036,-20.699 18.109,0 36.218,6.902 50,20.679 26.605,26.61 27.535,69.332 2.765,97.081 h 65.211 c 18.17,-45.729 8.79,-99.948 -28.156,-136.901 -24.77,-24.758 -57.289,-37.148 -89.816,-37.141" /></clipPath><clipPath
       id="clipPath70"
       clipPathUnits="userSpaceOnUse"><path
         id="path68"
         d="m 1363.27,537.16 c -55.85,0 -111.7,21.301 -154.31,63.91 -85.22,85.231 -85.22,223.399 0,308.621 42.61,42.61 98.46,63.918 154.31,63.918 55.85,0 111.7,-21.308 154.31,-63.918 85.22,-85.222 85.22,-223.39 0,-308.621 -42.61,-42.609 -98.46,-63.91 -154.31,-63.91" /></clipPath><clipPath
       id="clipPath84"
       clipPathUnits="userSpaceOnUse"><path
         id="path82"
         d="m 4747.19,3965.94 v -2930 c 0,-19.3 -15.71,-35 -35,-35 H 282.188 c -19.301,0 -35,15.7 -35,35 v 2930 c 0,19.3 15.699,35 35,35 H 4712.19 c 19.29,0 35,-15.7 35,-35" /></clipPath><clipPath
       id="clipPath264"
       clipPathUnits="userSpaceOnUse"><path
         id="path262"
         d="m 3417.2,2006.2 h -286.28 l 71.17,71.16 c 9.97,-2.82 20.49,-4.32 31.36,-4.32 63.63,0 115.21,51.58 115.21,115.21 0,10.87 -1.5,21.38 -4.31,31.35 l 72.85,72.84 V 2006.2 m -393.46,0 h -19.64 l 11.6,34 109.23,109.24 c 3.55,-9.92 8.42,-19.22 14.4,-27.67 L 3023.74,2006.2 m 276.2,276.16 c -8.45,5.98 -17.75,10.85 -27.68,14.4 l 76.23,76.24 h 42.11 l -90.66,-90.64 m -173.31,83.12 2.57,7.52 h 4.96 l -7.53,-7.52" /></clipPath></defs><g
     transform="matrix(1.3333333,0,0,-1.3333333,0,666.66667)"
     id="g10"><g
       transform="scale(0.1)"
       id="g12"><g
         transform="matrix(1.9216306,0,0,1.9216306,1337.0006,-4605.5556)"
         id="g826"><g
           id="g78"
           transform="translate(-2374.5007,996.2416)"><g
             id="g80"
             clip-path="url(#clipPath84)"><path
               d="m 2558.31,2319.64 c 36.56,-76.52 177.49,-371.42 510.82,-523 70.9,-32.25 404.25,-183.84 684.91,-45.33 371.36,183.26 253.73,678.61 599.37,926.27 150.88,108.11 308.44,59.94 473.74,11.77 160.3,-46.71 327.88,-93.42 503.73,2.38 186.46,101.59 335.21,321.3 339.95,517.87 C 5685.61,3823.1 4313,4853.73 3302.98,4354.82 2567.78,3991.67 2263.69,2936.12 2558.31,2319.64"
               style="fill:#eaf8f4;fill-opacity:1;fill-rule:nonzero;stroke:none"
               id="path86" /><path
               d="m 3370.01,3230.56 c -63.12,0 -127.63,-12.74 -193.94,-46.77 -177.95,-91.3 -318.71,-294.42 -327.42,-472.49 -12.9,-263.75 246.69,-621.67 645.96,-890.66 519.3,-349.84 1093.51,-436.26 1536.04,-231.14 320.95,148.75 586.52,455.97 728.6,842.88 134.75,366.97 139.62,754.88 13,1037.64 v 0.01 c -129.53,289.27 -323.54,430.91 -463.48,498.79 -239.8,116.31 -465.5,136.99 -635.56,58.27 -181.31,-83.95 -241.19,-247.86 -304.58,-421.39 -58.01,-158.76 -117.99,-322.93 -277.05,-431.04 -143.63,-97.6 -288.19,-51.54 -441.27,-2.76 -91.09,29.03 -184.07,58.66 -280.3,58.66 M 4513.39,1470.03 c -331.31,-0.01 -689.28,116.58 -1024.37,342.32 -402.07,270.87 -663.42,632.33 -650.35,899.44 8.87,181.35 151.97,388.1 332.83,480.9 171.1,87.78 329.07,37.43 481.85,-11.26 150.67,-48.03 293,-93.4 432.61,1.5 156.4,106.3 215.82,268.93 273.28,426.21 64.13,175.53 124.7,341.33 309.77,427.02 172.82,80.01 401.58,59.3 644.12,-58.35 141.44,-68.6 337.5,-211.68 468.24,-503.7 v 0.01 c 127.66,-285.1 122.9,-675.82 -12.74,-1045.18 -142.98,-389.39 -410.44,-698.66 -733.78,-848.52 -159.71,-74.02 -336.44,-110.39 -521.46,-110.39"
               style="fill:#b4e5d7;fill-opacity:1;fill-rule:nonzero;stroke:none"
               id="path88" /></g></g><path
           d="m 290.72934,3241.5616 c 0,-11.45 -9.28,-20.75 -20.75,-20.75 -11.46,0 -20.75,9.3 -20.75,20.75 0,11.47 9.29,20.76 20.75,20.76 11.47,0 20.75,-9.29 20.75,-20.76"
           style="fill:#60c8a7;fill-opacity:1;fill-rule:nonzero;stroke:none"
           id="path90" /><path
           d="m 161.16934,3324.8016 c -13.84,0 -25.1,-11.26 -25.1,-25.09 0,-13.84 11.26,-25.1 25.1,-25.1 13.83,0 25.1,11.26 25.1,25.1 0,13.83 -11.27,25.09 -25.1,25.09 z m 0,-77.58 c -28.94,0 -52.5,23.54 -52.5,52.49 0,28.94 23.56,52.49 52.5,52.49 28.95,0 52.49,-23.55 52.49,-52.49 0,-28.95 -23.54,-52.49 -52.49,-52.49"
           style="fill:#fbc038;fill-opacity:1;fill-rule:nonzero;stroke:none"
           id="path92" /><path
           d="m 1673.0193,4275.8616 h -17.64 v -17.64 c 0,-7.98 -6.45,-14.44 -14.44,-14.44 -7.98,0 -14.44,6.46 -14.44,14.44 v 17.64 h -17.65 c -7.98,0 -14.44,6.46 -14.44,14.45 0,7.98 6.46,14.45 14.44,14.45 h 17.65 v 17.62 c 0,7.99 6.46,14.45 14.44,14.45 7.99,0 14.44,-6.46 14.44,-14.45 v -17.62 h 17.64 c 7.98,0 14.44,-6.47 14.44,-14.45 0,-7.99 -6.46,-14.45 -14.44,-14.45"
           style="fill:#60c8a7;fill-opacity:1;fill-rule:nonzero;stroke:none"
           id="path94" /><path
           d="m 1814.9793,4367.5516 c 0,-11.46 -9.28,-20.75 -20.75,-20.75 -11.46,0 -20.76,9.29 -20.76,20.75 0,11.47 9.3,20.76 20.76,20.76 11.47,0 20.75,-9.29 20.75,-20.76"
           style="fill:#354c87;fill-opacity:1;fill-rule:nonzero;stroke:none"
           id="path96" /><path
           d="m 742.05934,3901.1216 c -62.48,156.87 -30.28,342.39 96.6,469.27 61.3,61.3 136.19,100.44 215.05996,117.43 l 46.38,-211.81 c -98.37,-21.42 -171.91996,-109.01 -171.91996,-213.59 0,-28.66 5.45,-55.98 15.5,-80.94 l -201.62,-80.36"
           style="fill:#354c87;fill-opacity:1;fill-rule:nonzero;stroke:none"
           id="path98" /><path
           d="m 838.65934,3754.4516 c -3.39,3.4 -6.65,6.94 -9.9,10.49 l 158.35,148.15 c 39.87996,-42.54 96.59996,-69.13 159.66996,-69.13 120.67,0 218.46,97.78 218.46,218.46 0,85.97 -49.63,160.41 -121.86,196.01 l 96.01,194.53 c 41.66,-20.39 80.8,-48.01 115.36,-82.57 170.01,-170.01 170.01,-445.93 0,-615.94 -170.16,-170.16 -446.08,-170.01 -616.08996,0"
           style="fill:#ffffff;fill-opacity:1;fill-rule:nonzero;stroke:none"
           id="path100" /><path
           d="m 1146.7793,4281.0316 c -16.1,0 -31.76,-1.78 -46.68,-5.02 l -46.38,211.81 c 95.28,20.97 196.46,9.45 285.67,-34.86 l -96.01,-194.53 c -29.1,14.48 -61.89,22.6 -96.6,22.6"
           style="fill:#60c8a7;fill-opacity:1;fill-rule:nonzero;stroke:none"
           id="path102" /><path
           d="m 828.75934,3764.9416 c -38.25,40.62 -67.2,87 -86.7,136.18 l 201.62,80.36 c 10.04,-25.56 24.96,-48.6 43.43,-68.39 l -158.35,-148.15"
           style="fill:#c4ecf0;fill-opacity:1;fill-rule:nonzero;stroke:none"
           id="path104" /><path
           d="m 2139.2993,4159.5416 v -1458.9 c 0,-24.59 -20,-44.5 -44.5,-44.5 h -932.7 c -24.6,0 -44.5,19.91 -44.5,44.5 v 1458.9 c 0,24.6 19.9,44.7 44.5,44.7 h 932.7 c 24.5,0 44.5,-20.1 44.5,-44.7"
           style="fill:#5fcacc;fill-opacity:1;fill-rule:nonzero;stroke:none"
           id="path106" /><path
           d="m 1014.5493,2614.2616 h 1227.79 c 11.43,0 20.7,9.27 20.7,20.69 0,11.43 -9.27,20.69 -20.7,20.69 h -1227.79 c -11.43,0 -20.68996,-9.26 -20.68996,-20.69 0,-11.42 9.25996,-20.69 20.68996,-20.69"
           style="fill:#e4e4e3;fill-opacity:1;fill-rule:nonzero;stroke:none"
           id="path108" /><path
           d="m 2139.2793,4159.5816 v -108.74 h -1021.67 v 108.74 c 0,24.59 19.94,44.66 44.52,44.66 h 932.63 c 24.58,0 44.52,-20.07 44.52,-44.66"
           style="fill:#5fcacc;fill-opacity:1;fill-rule:nonzero;stroke:none"
           id="path110" /><path
           d="m 1628.4493,2694.4116 v 0 c -23.14,0 -41.89,18.75 -41.89,41.89 0,23.12 18.75,41.88 41.89,41.88 23.12,0 41.88,-18.76 41.88,-41.88 0,-23.14 -18.76,-41.89 -41.88,-41.89"
           style="fill:#e8f7e9;fill-opacity:1;fill-rule:nonzero;stroke:none"
           id="path112" /><path
           d="m 1235.1893,4111.8216 v 0 c -9.41,0 -17.02,7.62 -17.02,17.02 0,9.4 7.61,17.02 17.02,17.02 9.39,0 17.02,-7.62 17.02,-17.02 0,-9.4 -7.63,-17.02 -17.02,-17.02"
           style="fill:#e8f7e9;fill-opacity:1;fill-rule:nonzero;stroke:none"
           id="path114" /><path
           d="m 1289.4293,4111.8216 v 0 c -9.4,0 -17.03,7.62 -17.03,17.02 0,9.4 7.63,17.02 17.03,17.02 9.4,0 17.02,-7.62 17.02,-17.02 0,-9.4 -7.62,-17.02 -17.02,-17.02"
           style="fill:#e8f7e9;fill-opacity:1;fill-rule:nonzero;stroke:none"
           id="path116" /><path
           d="m 1133.4493,2822.7316 h 989.922 v 1228.08 h -989.922 z"
           style="fill:#d6f2f9;fill-opacity:1;fill-rule:nonzero;stroke:none"
           id="path118" /><path
           d="m 982.79934,3639.4116 h 327.78896 v 145.43 H 982.79934 Z"
           style="fill:#aee4e7;fill-opacity:1;fill-rule:nonzero;stroke:none"
           id="path120" /><path
           d="m 1182.7993,3269.0316 h 327.789 v 145.43 h -327.789 z"
           style="fill:#aee4e7;fill-opacity:1;fill-rule:nonzero;stroke:none"
           id="path122" /><path
           d="m 1082.7993,3454.2216 h 327.789 v 145.43 h -327.789 z"
           style="fill:#aee4e7;fill-opacity:1;fill-rule:nonzero;stroke:none"
           id="path124" /><path
           d="m 1182.7993,3834.0316 h 884.008 v 165.41 h -884.008 z"
           style="fill:#f0faf5;fill-opacity:1;fill-rule:nonzero;stroke:none"
           id="path126" /><path
           d="m 2040.3493,3857.9616 h -117.54 v 117.54 h 117.54 v -117.54"
           style="fill:#d6edf5;fill-opacity:1;fill-rule:nonzero;stroke:none"
           id="path128" /><path
           d="m 1239.9193,3945.7016 h 254.43 v 22.668 h -254.43 z"
           style="fill:#ade2c3;fill-opacity:1;fill-rule:nonzero;stroke:none"
           id="path130" /><path
           d="m 1239.9193,3905.4016 h 254.43 v 22.6719 h -254.43 z"
           style="fill:#ade2c3;fill-opacity:1;fill-rule:nonzero;stroke:none"
           id="path132" /><path
           d="m 1239.9193,3865.0916 h 171.289 v 22.668 h -171.289 z"
           style="fill:#ade2c3;fill-opacity:1;fill-rule:nonzero;stroke:none"
           id="path134" /><path
           d="m 2139.2993,2953.4216 h 94.5313 v 339.34 h -94.5313 z"
           style="fill:#c9ecd5;fill-opacity:1;fill-rule:nonzero;stroke:none"
           id="path136" /><path
           d="m 2123.3693,2953.4216 h 15.9297 v 339.34 h -15.9297 z"
           style="fill:#7dd2be;fill-opacity:1;fill-rule:nonzero;stroke:none"
           id="path138" /><path
           d="m 2123.3693,2953.4216 h -612.78 v 339.34 h 40.41 v -23.73 h 515.81 v 23.73 h 56.56 v -339.34"
           style="fill:#b4e5d2;fill-opacity:1;fill-rule:nonzero;stroke:none"
           id="path140" /><path
           d="m 1866.5393,3146.5016 h -283.79 v 28.65 h 283.79 v -28.65"
           style="fill:#e8f7e9;fill-opacity:1;fill-rule:nonzero;stroke:none"
           id="path142" /><path
           d="m 1799.1693,3095.5816 h -216.42 v 28.64 h 216.42 v -28.64"
           style="fill:#e8f7e9;fill-opacity:1;fill-rule:nonzero;stroke:none"
           id="path144" /><path
           d="m 1728.7093,3044.6616 h -145.96 v 28.64 h 145.96 v -28.64"
           style="fill:#e8f7e9;fill-opacity:1;fill-rule:nonzero;stroke:none"
           id="path146" /><path
           d="m 1833.7393,3044.6616 h -86.99 v 28.64 h 86.99 v -28.64"
           style="fill:#e8f7e9;fill-opacity:1;fill-rule:nonzero;stroke:none"
           id="path148" /><path
           d="m 1780.0793,2993.7316 h -197.33 v 28.64 h 197.33 v -28.64"
           style="fill:#e8f7e9;fill-opacity:1;fill-rule:nonzero;stroke:none"
           id="path150" /><path
           d="m 1182.7993,2953.4216 h 260.988 v 260.98 h -260.988 z"
           style="fill:#a1ddb3;fill-opacity:1;fill-rule:nonzero;stroke:none"
           id="path152" /><path
           d="m 1395.1093,3083.2116 c 0,-45.18 -36.63,-81.8 -81.81,-81.8 -45.18,0 -81.8,36.62 -81.8,81.8 0,45.18 36.62,81.81 81.8,81.81 45.18,0 81.81,-36.63 81.81,-81.81"
           style="fill:#7acf93;fill-opacity:1;fill-rule:nonzero;stroke:none"
           id="path154" /><path
           d="m 1375.2893,3083.2216 c 0,-20.52 -9.94,-38.65 -25.27,-49.94 -4.55,-3.38 -9.62,-6.12 -14.99,-8.14 -2.42,-0.91 -4.92,-1.66 -7.46,-2.27 -1.53,-0.36 -3.08,-0.66 -4.65,-0.91 -3.13,-0.5 -6.33,-0.75 -9.62,-0.75 -6.39,0 -12.58,1 -18.41,2.77 -25.26,7.86 -43.57,31.42 -43.57,59.24 0,9.69 2.23,18.83 6.18,26.99 4.84,10.01 12.29,18.52 21.49,24.61 2.14,1.46 4.4,2.75 6.72,3.93 5.04,2.51 10.48,4.34 16.19,5.4 3.71,0.69 7.51,1.05 11.4,1.05 26.31,0 48.83,-16.41 57.76,-39.56 2.74,-6.94 4.23,-14.51 4.23,-22.42"
           style="fill:#f2f7f7;fill-opacity:1;fill-rule:nonzero;stroke:none"
           id="path156" /><path
           d="m 1313.2993,3076.0416 c -3.95,0 -7.16,3.22 -7.16,7.17 v 39.7 c 0,3.95 3.21,7.17 7.16,7.17 3.96,0 7.17,-3.22 7.17,-7.17 v -39.7 c 0,-3.95 -3.21,-7.17 -7.17,-7.17"
           style="fill:#c2dbcc;fill-opacity:1;fill-rule:nonzero;stroke:none"
           id="path158" /><path
           d="m 1313.3093,3076.0416 c -2.39,0 -4.71,1.2 -6.08,3.36 -2.1,3.35 -1.09,7.78 2.26,9.89 l 20.61,12.93 c 3.37,2.11 7.78,1.07 9.88,-2.27 2.1,-3.35 1.09,-7.77 -2.26,-9.88 l -20.61,-12.93 c -1.18,-0.74 -2.5,-1.1 -3.8,-1.1"
           style="fill:#c2dbcc;fill-opacity:1;fill-rule:nonzero;stroke:none"
           id="path160" /><path
           d="m 1550.9993,3269.0316 h 515.809 v 515.813 h -515.809 z"
           style="fill:#a0e0ee;fill-opacity:1;fill-rule:nonzero;stroke:none"
           id="path162" /><path
           d="m 1808.9093,3503.6716 v 0 c -36.28,0 -65.7,29.41 -65.7,65.69 v 39.41 c 0,36.28 29.42,65.69 65.7,65.69 36.28,0 65.68,-29.41 65.68,-65.69 v -39.41 c 0,-36.28 -29.4,-65.69 -65.68,-65.69"
           style="fill:#fafdfb;fill-opacity:1;fill-rule:nonzero;stroke:none"
           id="path164" /><path
           d="m 1808.9093,3537.4116 c -61.92,0 -115.35,-36.31 -140.17,-88.8 -14.51,-30.69 7.72,-66.15 41.67,-66.15 h 196.99 c 33.96,0 56.19,35.46 41.66,66.15 -24.81,52.49 -78.25,88.8 -140.15,88.8"
           style="fill:#fafdfb;fill-opacity:1;fill-rule:nonzero;stroke:none"
           id="path166" /><path
           d="m 1182.7993,2894.0516 h 884.008 v 42.0625 h -884.008 z"
           style="fill:#fddf9b;fill-opacity:1;fill-rule:nonzero;stroke:none"
           id="path168" /><path
           d="m 2133.0693,3801.5316 v 0 153.74 c 10.96,0 19.84,-8.88 19.84,-19.84 v -114.06 c 0,-10.96 -8.88,-19.84 -19.84,-19.84"
           style="fill:#5fcacc;fill-opacity:1;fill-rule:nonzero;stroke:none"
           id="path170" /><path
           d="m 2133.0693,3629.9716 v 0 153.74 c 10.96,0 19.84,-8.88 19.84,-19.84 v -114.06 c 0,-10.96 -8.88,-19.84 -19.84,-19.84"
           style="fill:#5fcacc;fill-opacity:1;fill-rule:nonzero;stroke:none"
           id="path172" /><path
           d="m 1256.6393,3599.6516 h -123.19 v 39.76 h 162.95 l -39.76,-39.76 m 53.95,53.96 v 131.23 h -177.14 v 0.36 l 49.35,49.36 v -0.53 h 308.21 l -180.42,-180.42 m 345.83,345.83 h -308.73 l 51.36,51.37 h 308.74 l -51.37,-51.37"
           style="fill:#e0f5fb;fill-opacity:1;fill-rule:nonzero;stroke:none"
           id="path174" /><path
           d="m 1296.3993,3639.4116 h -162.95 v 145.43 h 177.14 v -131.23 l -14.19,-14.2"
           style="fill:#c4ecee;fill-opacity:1;fill-rule:nonzero;stroke:none"
           id="path176" /><path
           d="m 1185.3293,3528.3416 c -1.8,0.33 -3.65,0.5 -5.53,0.5 h -46.35 v 70.81 h 123.19 l -71.31,-71.31"
           style="fill:#c4ecee;fill-opacity:1;fill-rule:nonzero;stroke:none"
           id="path178" /><path
           d="m 1491.0093,3834.0316 h -308.21 v 0.53 l 70.85,70.84 h 240.7 v 22.67 h -218.03 l 17.63,17.63 h 200.4 v 22.67 h -177.73 l 31.07,31.07 h 308.73 l -165.41,-165.41 m -251.09,53.73 v -22.67 h 171.29 v 22.67 h -171.29"
           style="fill:#f2fbf7;fill-opacity:1;fill-rule:nonzero;stroke:none"
           id="path180" /><path
           d="m 1494.3493,3945.7016 h -200.4 l 22.67,22.67 h 177.73 v -22.67"
           style="fill:#c3ead3;fill-opacity:1;fill-rule:nonzero;stroke:none"
           id="path182" /><path
           d="m 1494.3493,3905.4016 h -240.7 l 22.67,22.67 h 218.03 v -22.67"
           style="fill:#c3ead3;fill-opacity:1;fill-rule:nonzero;stroke:none"
           id="path184" /><path
           d="m 1239.9193,3865.0916 h 171.289 v 22.668 h -171.289 z"
           style="fill:#c3ead3;fill-opacity:1;fill-rule:nonzero;stroke:none"
           id="path186" /><path
           d="m 1307.4193,3435.4916 c -2.76,0.81 -5.69,1.25 -8.72,1.25 h -87.9 v 17.48 h 115.35 l -18.73,-18.73 m 103.17,103.16 v 61 h -93.37 l 234.42,234.38 h 154.37 l -49.19,-49.19 h -105.82 v -105.8 l -140.41,-140.39 m 460.85,460.79 h -154.36 l 51.37,51.37 h 154.36 l -51.37,-51.37"
           style="fill:#e0f5fb;fill-opacity:1;fill-rule:nonzero;stroke:none"
           id="path188" /><path
           d="m 1326.1493,3454.2216 h -115.35 v 39.03 l 106.42,106.4 h 93.37 v -61 l -84.44,-84.43"
           style="fill:#c4ecee;fill-opacity:1;fill-rule:nonzero;stroke:none"
           id="path190" /><path
           d="m 1706.0093,3834.0316 h -154.37 l 165.44,165.41 h 154.36 l -165.43,-165.41"
           style="fill:#f2fbf7;fill-opacity:1;fill-rule:nonzero;stroke:none"
           id="path192" /><path
           d="m 1550.9993,3679.0416 v 105.8 h 105.82 l -105.82,-105.8"
           style="fill:#bae8f2;fill-opacity:1;fill-rule:nonzero;stroke:none"
           id="path194" /><path
           d="m 1329.5993,2656.1416 h -97.3 v 110.03 h -21.5 v 56.56 h 118.8 v -166.59"
           style="fill:#46abb7;fill-opacity:1;fill-rule:nonzero;stroke:none"
           id="path196" /><path
           d="m 1329.5993,2822.7316 h -118.8 v 71.32 h 118.8 v -71.32 m 0,113.38 h -118.8 v 17.31 h 118.8 v -17.31 m 0,278.29 h -118.8 v 54.63 h 118.8 v -54.63 m -1.24,200.06 h -41.97 l 21.03,21.03 c 10.07,-2.96 18,-10.93 20.94,-21.03"
           style="fill:#a2cbdb;fill-opacity:1;fill-rule:nonzero;stroke:none"
           id="path198" /><path
           d="m 1329.5993,3269.0316 h -118.8 v 69.86 l 75.59,75.57 h 41.97 c 0.81,-2.76 1.24,-5.69 1.24,-8.72 v -136.71"
           style="fill:#82bac7;fill-opacity:1;fill-rule:nonzero;stroke:none"
           id="path200" /><path
           d="m 1329.5993,2953.4216 h -118.8 v 260.98 h 118.8 v -35.56 c 5,-1.8 8.7,-6.4 8.7,-12 v -5.71 c -7.88,2.52 -16.28,3.89 -25,3.89 -45.18,0 -81.8,-36.63 -81.8,-81.81 0,-45.18 36.62,-81.8 81.8,-81.8 5.58,0 11.03,0.56 16.3,1.62 v -49.61"
           style="fill:#73c9a2;fill-opacity:1;fill-rule:nonzero;stroke:none"
           id="path202" /><path
           d="m 1313.2993,3001.4116 c -45.18,0 -81.8,36.62 -81.8,81.8 0,45.18 36.62,81.81 81.8,81.81 8.72,0 17.12,-1.37 25,-3.89 v -21.18 c -7.65,3.38 -16.11,5.25 -25,5.25 -3.89,0 -7.69,-0.36 -11.4,-1.05 -5.71,-1.06 -11.15,-2.89 -16.19,-5.4 -2.32,-1.18 -4.58,-2.47 -6.72,-3.93 -9.2,-6.09 -16.65,-14.6 -21.49,-24.61 -3.95,-8.16 -6.18,-17.3 -6.18,-26.99 0,-27.82 18.31,-51.38 43.57,-59.24 5.83,-1.77 12.02,-2.77 18.41,-2.77 3.29,0 6.49,0.25 9.62,0.75 1.57,0.25 3.12,0.55 4.65,0.91 1.99,0.47 3.95,1.04 5.87,1.69 -1.15,-0.9 -2.44,-1.62 -3.84,-2.12 v -19.41 c -5.27,-1.06 -10.72,-1.62 -16.3,-1.62"
           style="fill:#55b986;fill-opacity:1;fill-rule:nonzero;stroke:none"
           id="path204" /><path
           d="m 1313.2993,3021.2116 c -6.39,0 -12.58,1 -18.41,2.77 -25.26,7.86 -43.57,31.42 -43.57,59.24 0,9.69 2.23,18.83 6.18,26.99 4.84,10.01 12.29,18.52 21.49,24.61 2.14,1.46 4.4,2.75 6.72,3.93 5.04,2.51 10.48,4.34 16.19,5.4 3.71,0.69 7.51,1.05 11.4,1.05 8.89,0 17.35,-1.87 25,-5.25 v -38.14 c -1.26,0.98 -2.82,1.5 -4.4,1.5 -1.3,0 -2.61,-0.35 -3.8,-1.09 l -9.63,-6.05 v 26.74 c 0,3.95 -3.21,7.17 -7.17,7.17 -3.95,0 -7.16,-3.22 -7.16,-7.17 v -39.7 c 0,0 0,0 0,-0.01 -0.01,-1.3 0.35,-2.61 1.09,-3.8 0.66,-1.05 1.56,-1.88 2.58,-2.44 0,-0.01 0.01,-0.01 0.01,-0.01 0.01,-0.01 0.02,-0.01 0.03,-0.02 1.01,-0.56 2.16,-0.88 3.39,-0.89 0.02,0 0.03,0 0.04,0 0.01,0 0.02,0 0.02,0 0,0 0,0 0.01,0 v 0 c 1.3,0 2.62,0.36 3.8,1.1 l 20.61,12.93 c 0.2,0.13 0.4,0.26 0.58,0.41 v -56.04 c 0,-4.04 -1.92,-7.55 -4.86,-9.88 -1.92,-0.65 -3.88,-1.22 -5.87,-1.69 -1.53,-0.36 -3.08,-0.66 -4.65,-0.91 -3.13,-0.5 -6.33,-0.75 -9.62,-0.75"
           style="fill:#b8c5d0;fill-opacity:1;fill-rule:nonzero;stroke:none"
           id="path206" /><path
           d="m 1313.2993,3076.0416 c 0,0 -0.01,0 -0.02,0 0.01,0 0.02,0 0.03,0 -0.01,0 -0.01,0 -0.01,0 m -0.06,0 c -1.23,0.01 -2.38,0.33 -3.39,0.89 1.04,-0.57 2.21,-0.87 3.39,-0.89 m -3.42,0.91 c 0,0 -0.01,0 -0.01,0.01 0,-0.01 0.01,-0.01 0.01,-0.01 m -3.68,6.25 c 0,0.01 0,0.01 0,0.01 v 39.7 c 0,3.95 3.21,7.17 7.16,7.17 3.96,0 7.17,-3.22 7.17,-7.17 v -26.74 l -10.98,-6.88 c -2.16,-1.37 -3.35,-3.7 -3.35,-6.09"
           style="fill:#90adae;fill-opacity:1;fill-rule:nonzero;stroke:none"
           id="path208" /><path
           d="m 1313.3093,3076.0416 v 0 c -0.01,0 -0.02,0 -0.03,0 -0.01,0 -0.02,0 -0.04,0 -1.18,0.02 -2.35,0.32 -3.39,0.89 -0.01,0.01 -0.02,0.01 -0.03,0.02 0,0 -0.01,0 -0.01,0.01 -1.02,0.56 -1.92,1.39 -2.58,2.44 -0.74,1.19 -1.1,2.5 -1.09,3.8 0,2.39 1.19,4.72 3.35,6.09 l 10.98,6.88 9.63,6.05 c 1.19,0.74 2.5,1.09 3.8,1.09 1.58,0 3.14,-0.52 4.4,-1.5 v -11.33 c -0.18,-0.15 -0.38,-0.28 -0.58,-0.41 l -20.61,-12.93 c -1.18,-0.74 -2.5,-1.1 -3.8,-1.1"
           style="fill:#90adae;fill-opacity:1;fill-rule:nonzero;stroke:none"
           id="path210" /><path
           d="m 1210.7993,2894.0516 h 118.801 v 42.0625 h -118.801 z"
           style="fill:#bfb485;fill-opacity:1;fill-rule:nonzero;stroke:none"
           id="path212" /><path
           d="m 1286.3893,3414.4616 h -75.59 v 22.28 h 87.9 c 3.03,0 5.96,-0.44 8.72,-1.25 l -21.03,-21.03"
           style="fill:#a9cdda;fill-opacity:1;fill-rule:nonzero;stroke:none"
           id="path214" /><path
           d="m 1210.7993,3338.8916 v 75.57 h 75.59 l -75.59,-75.57"
           style="fill:#94c1cc;fill-opacity:1;fill-rule:nonzero;stroke:none"
           id="path216" /><path
           d="m 1210.7993,3497.8416 v -1012.9 c 0,-17.1 -13.9,-30.9 -31,-30.9 H 648.19934 c -17,0 -30.9,13.8 -30.9,30.9 v 1012.9 c 0,17.1 13.9,31 30.9,31 h 531.59996 c 17.1,0 31,-13.9 31,-31"
           style="fill:#5dc585;fill-opacity:1;fill-rule:nonzero;stroke:none"
           id="path218" /><path
           d="m 1210.7493,3497.8316 v -75.5 H 617.32934 v 75.5 c 0,17.06 13.84,31 30.9,31 h 531.61996 c 17.07,0 30.9,-13.94 30.9,-31"
           style="fill:#5dc585;fill-opacity:1;fill-rule:nonzero;stroke:none"
           id="path220" /><path
           d="m 914.03934,2480.6116 v 0 c -16.07,0 -29.09,13.02 -29.09,29.09 0,16.06 13.02,29.08 29.09,29.08 16.05,0 29.08,-13.02 29.08,-29.08 0,-16.07 -13.03,-29.09 -29.08,-29.09"
           style="fill:#e8f7e9;fill-opacity:1;fill-rule:nonzero;stroke:none"
           id="path222" /><path
           d="m 806.61934,3464.6716 c -6.52,0 -11.81,5.29 -11.81,11.81 0,6.53 5.29,11.82 11.81,11.82 6.53,0 11.82,-5.29 11.82,-11.82 0,-6.52 -5.29,-11.81 -11.82,-11.81"
           style="fill:#e8f7e9;fill-opacity:1;fill-rule:nonzero;stroke:none"
           id="path224" /><path
           d="m 973.67934,3472.1316 h -117.55 c -2.4,0 -4.35,1.95 -4.35,4.35 0,2.41 1.95,4.36 4.35,4.36 h 117.55 c 2.42,0 4.36,-1.95 4.36,-4.36 0,-2.4 -1.94,-4.35 -4.36,-4.35"
           style="fill:#e8f7e9;fill-opacity:1;fill-rule:nonzero;stroke:none"
           id="path226" /><path
           d="m 628.31934,2569.7116 h 571.39096 v 852.59 H 628.31934 Z"
           style="fill:#d6f2f9;fill-opacity:1;fill-rule:nonzero;stroke:none"
           id="path228" /><path
           d="m 674.29934,2936.3516 h 103.629 v 32.75 h -103.629 z"
           style="fill:#f0faf5;fill-opacity:1;fill-rule:nonzero;stroke:none"
           id="path230" /><path
           d="M 1041.8593,2936.3516 H 938.21934 v 32.75 h 103.63996 v -32.75"
           style="fill:#f0faf5;fill-opacity:1;fill-rule:nonzero;stroke:none"
           id="path232" /><path
           d="m 909.88934,2936.3516 h -103.63 v 32.75 h 103.63 v -32.75"
           style="fill:#f0faf5;fill-opacity:1;fill-rule:nonzero;stroke:none"
           id="path234" /><path
           d="M 1154.6493,2794.7416 H 736.46934 v 114.84 h 418.17996 v -114.84"
           style="fill:#f0faf5;fill-opacity:1;fill-rule:nonzero;stroke:none"
           id="path236" /><path
           d="m 1136.2793,2811.3616 h -81.6 v 81.6 h 81.6 v -81.6"
           style="fill:#d7f1e1;fill-opacity:1;fill-rule:nonzero;stroke:none"
           id="path238" /><path
           d="m 891.44934,2872.2816 h -176.63 v 15.74 h 176.63 v -15.74"
           style="fill:#ade2c3;fill-opacity:1;fill-rule:nonzero;stroke:none"
           id="path240" /><path
           d="m 891.44934,2844.3016 h -176.63 v 15.73 h 176.63 v -15.73"
           style="fill:#ade2c3;fill-opacity:1;fill-rule:nonzero;stroke:none"
           id="path242" /><path
           d="m 833.73934,2816.3116 h -118.92 v 15.74 h 118.92 v -15.74"
           style="fill:#ade2c3;fill-opacity:1;fill-rule:nonzero;stroke:none"
           id="path244" /><path
           d="m 980.79934,2622.7616 h -305.63 v 143.41 h 305.63 v -143.41"
           style="fill:#f0faf5;fill-opacity:1;fill-rule:nonzero;stroke:none"
           id="path246" /><path
           d="m 870.74934,2728.8616 h -155.93 v 15.74 h 155.93 v -15.74"
           style="fill:#fddf9b;fill-opacity:1;fill-rule:nonzero;stroke:none"
           id="path248" /><path
           d="m 833.73934,2700.8816 h -118.92 v 15.74 h 118.92 v -15.74"
           style="fill:#fddf9b;fill-opacity:1;fill-rule:nonzero;stroke:none"
           id="path250" /><path
           d="m 795.01934,2672.9016 h -80.2 v 15.73 h 80.2 v -15.73"
           style="fill:#fddf9b;fill-opacity:1;fill-rule:nonzero;stroke:none"
           id="path252" /><path
           d="m 852.73934,2672.9016 h -47.81 v 15.73 h 47.81 v -15.73"
           style="fill:#ade2c3;fill-opacity:1;fill-rule:nonzero;stroke:none"
           id="path254" /><path
           d="m 823.23934,2644.9116 h -108.42 v 15.74 h 108.42 v -15.74"
           style="fill:#fddf9b;fill-opacity:1;fill-rule:nonzero;stroke:none"
           id="path256" /><g
           id="g258"
           transform="translate(-2374.5007,996.2416)"><g
             id="g260"
             clip-path="url(#clipPath264)"><path
               d="m 3004.1,2006.2 h 413.098 v 366.801 H 3004.1 Z"
               style="fill:#e7efcf;fill-opacity:1;fill-rule:nonzero;stroke:none"
               id="path266" /></g></g><path
           d="m 974.15934,3184.4916 c 0,-63.63 -51.58,-115.21 -115.21,-115.21 -63.64,0 -115.22,51.58 -115.22,115.21 0,63.63 51.58,115.22 115.22,115.22 63.63,0 115.21,-51.59 115.21,-115.22"
           style="fill:#fbc038;fill-opacity:1;fill-rule:nonzero;stroke:none"
           id="path268" /><path
           d="m 946.23934,3184.5116 c 0,-28.9 -13.98,-54.44 -35.57,-70.34 -6.42,-4.76 -13.56,-8.62 -21.13,-11.48 -3.4,-1.27 -6.92,-2.33 -10.5,-3.18 -2.15,-0.52 -4.32,-0.94 -6.54,-1.28 -4.41,-0.72 -8.92,-1.06 -13.55,-1.06 -9.02,0 -17.73,1.4 -25.93,3.91 -35.58,11.05 -61.37,44.24 -61.37,83.43 0,13.64 3.15,26.52 8.71,37.99 6.8,14.11 17.3,26.1 30.27,34.69 3.01,2.04 6.2,3.86 9.47,5.52 7.1,3.53 14.75,6.12 22.78,7.61 5.23,0.98 10.59,1.49 16.07,1.49 37.06,0 68.77,-23.13 81.35,-55.73 3.86,-9.77 5.94,-20.44 5.94,-31.57"
           style="fill:#f2f7f7;fill-opacity:1;fill-rule:nonzero;stroke:none"
           id="path270" /><path
           d="m 858.94934,3174.3916 c -5.58,0 -10.1,4.53 -10.1,10.1 v 55.91 c 0,5.58 4.52,10.1 10.1,10.1 5.57,0 10.1,-4.52 10.1,-10.1 v -55.91 c 0,-5.57 -4.53,-10.1 -10.1,-10.1"
           style="fill:#c2dbcc;fill-opacity:1;fill-rule:nonzero;stroke:none"
           id="path272" /><path
           d="m 858.95934,3174.3916 c -3.36,0 -6.64,1.68 -8.57,4.74 -2.96,4.72 -1.53,10.95 3.2,13.92 l 29.02,18.21 c 4.7,2.95 10.95,1.53 13.92,-3.19 2.95,-4.72 1.53,-10.95 -3.2,-13.92 l -29.02,-18.21 c -1.66,-1.05 -3.52,-1.55 -5.35,-1.55"
           style="fill:#c2dbcc;fill-opacity:1;fill-rule:nonzero;stroke:none"
           id="path274" /><path
           d="m 973.98934,3369.2416 h -214.33 l 53.07,53.06 h 214.32996 l -53.06996,-53.06"
           style="fill:#e0f5fb;fill-opacity:1;fill-rule:nonzero;stroke:none"
           id="path276" /><path
           d="m 641.19934,3036.4416 110.93,325.28 7.53,7.52 h 214.33 l -76.23,-76.24 c -12.13,4.34 -25.19,6.71 -38.81,6.71 -63.64,0 -115.22,-51.59 -115.22,-115.22 0,-13.62 2.36,-26.68 6.7,-38.81 l -109.23,-109.24"
           style="fill:#edf5e0;fill-opacity:1;fill-rule:nonzero;stroke:none"
           id="path278" /><path
           d="m 750.42934,3145.6816 c -4.34,12.13 -6.7,25.19 -6.7,38.81 0,63.63 51.58,115.22 115.22,115.22 13.62,0 26.68,-2.37 38.81,-6.71 l -22.69,-22.68 c -5.22,0.97 -10.61,1.49 -16.12,1.49 -5.48,0 -10.84,-0.51 -16.07,-1.49 -8.03,-1.49 -15.68,-4.08 -22.78,-7.61 -3.27,-1.66 -6.46,-3.48 -9.47,-5.52 -12.97,-8.59 -23.47,-20.58 -30.27,-34.69 -5.56,-11.47 -8.71,-24.35 -8.71,-37.99 0,-5.51 0.51,-10.9 1.49,-16.13 l -22.71,-22.7"
           style="fill:#fad36c;fill-opacity:1;fill-rule:nonzero;stroke:none"
           id="path280" /><path
           d="m 773.13934,3168.3816 c -0.98,5.23 -1.49,10.62 -1.49,16.13 0,13.64 3.15,26.52 8.71,37.99 6.8,14.11 17.3,26.1 30.27,34.69 3.01,2.04 6.2,3.86 9.47,5.52 7.1,3.53 14.75,6.12 22.78,7.61 5.23,0.98 10.59,1.49 16.07,1.49 5.51,0 10.9,-0.52 16.12,-1.49 l -21.16,-21.16 c -1.54,-0.89 -2.83,-2.18 -3.72,-3.73 l -77.05,-77.05"
           style="fill:#f4faf9;fill-opacity:1;fill-rule:nonzero;stroke:none"
           id="path282" /><path
           d="m 850.18934,3245.4316 c 0.89,1.55 2.18,2.84 3.72,3.73 l -3.72,-3.73"
           style="fill:#d3e7dc;fill-opacity:1;fill-rule:nonzero;stroke:none"
           id="path284" /><path
           d="m 628.31934,2874.3616 v 107.16 l 20.92,20.92 h 107.18 l -33.34,-33.34 h -48.78 v -32.75 h 16.02 l -62,-61.99 m 414.37996,414.32 v 80.56 h -26.6 l 53.07,53.06 h 107.17 l -133.64,-133.62"
           style="fill:#e0f5fb;fill-opacity:1;fill-rule:nonzero;stroke:none"
           id="path286" /><path
           d="m 690.31934,2936.3516 h -16.02 v 32.75 h 48.78 l -32.76,-32.75"
           style="fill:#f2fbf7;fill-opacity:1;fill-rule:nonzero;stroke:none"
           id="path288" /><path
           d="m 756.41934,3002.4416 h -107.18 l 115.59,115.57 c 15.03,-21.24 37.07,-37.17 62.76,-44.41 l -71.17,-71.16 m 213.43,213.4 c -7.25,25.68 -23.17,47.72 -44.41,62.76 l 90.65996,90.64 h 26.6 v -80.56 l -72.84996,-72.84"
           style="fill:#edf5e0;fill-opacity:1;fill-rule:nonzero;stroke:none"
           id="path290" /><path
           d="m 827.58934,3073.6016 c -25.69,7.24 -47.73,23.17 -62.76,44.41 l 20.13,20.12 c 10.96,-17.48 27.95,-30.8 48.06,-37.05 5.92,-1.81 12.1,-3.04 18.46,-3.59 l -23.89,-23.89 m 118.34,118.33 c -0.71,8.45 -2.63,16.57 -5.63,24.15 -6.8,17.62 -19.19,32.47 -34.98,42.4 l 20.12,20.12 c 21.24,-15.04 37.16,-37.08 44.41,-62.76 l -23.92,-23.91"
           style="fill:#fad36c;fill-opacity:1;fill-rule:nonzero;stroke:none"
           id="path292" /><path
           d="m 851.47934,3097.4916 c -6.36,0.55 -12.54,1.78 -18.46,3.59 -20.11,6.25 -37.1,19.57 -48.06,37.05 l 63.89,63.89 v -17.53 c 0,-5.57 4.52,-10.1 10.1,-10.1 v 0 h 0.01 c 0,0 0.01,0 0.02,0 0.01,0 0.03,0 0.04,0 0.94,0.01 1.88,0.15 2.8,0.42 0.01,0 0.01,0 0.02,0 0.01,0.01 0.03,0.01 0.05,0.02 0.02,0.01 0.04,0.01 0.06,0.02 v 0 c 0.03,0.01 0.06,0.02 0.08,0.02 0,0.01 0.01,0.01 0.01,0.01 0.88,0.28 1.71,0.68 2.47,1.18 l 28.82,18.09 c 4.73,2.97 6.15,9.2 3.2,13.92 -1.93,3.06 -5.22,4.73 -8.58,4.73 -1.83,0 -3.68,-0.5 -5.34,-1.54 l -13.56,-8.51 v 19.46 l 36.27,36.27 c 15.79,-9.93 28.18,-24.78 34.98,-42.4 3,-7.58 4.92,-15.7 5.63,-24.15 l -94.45,-94.44"
           style="fill:#f4faf9;fill-opacity:1;fill-rule:nonzero;stroke:none"
           id="path294" /><path
           d="m 858.94934,3174.3916 c -5.58,0 -10.1,4.53 -10.1,10.1 v 17.53 l 20.2,20.19 v -19.46 l -15.46,-9.7 c -4.73,-2.97 -6.16,-9.2 -3.2,-13.92 1.93,-3.06 5.2,-4.73 8.56,-4.74 v 0 m 0.03,0 c 0.01,0 0.03,0 0.04,0 -0.01,0 -0.03,0 -0.04,0 m 2.84,0.42 c 0.01,0 0.01,0 0.02,0 -0.01,0 -0.01,0 -0.02,0 m 0.07,0.02 c 0.02,0.01 0.04,0.01 0.06,0.02 -0.02,-0.01 -0.04,-0.01 -0.06,-0.02 m 0.06,0.02 c 0.03,0.01 0.06,0.02 0.08,0.02 -0.02,0 -0.05,-0.01 -0.08,-0.02 m 0.09,0.03 c 0.78,0.25 1.54,0.6 2.27,1.06 l 0.2,0.12 c -0.76,-0.5 -1.59,-0.9 -2.47,-1.18"
           style="fill:#d3e7dc;fill-opacity:1;fill-rule:nonzero;stroke:none"
           id="path296" /><path
           d="m 858.95934,3174.3916 h -0.01 c -3.36,0.01 -6.63,1.68 -8.56,4.74 -2.96,4.72 -1.53,10.95 3.2,13.92 l 15.46,9.7 13.56,8.51 c 1.66,1.04 3.51,1.54 5.34,1.54 3.36,0 6.65,-1.67 8.58,-4.73 2.95,-4.72 1.53,-10.95 -3.2,-13.92 l -28.82,-18.09 -0.2,-0.12 c -0.73,-0.46 -1.49,-0.81 -2.27,-1.06 0,0 -0.01,0 -0.01,-0.01 -0.02,0 -0.05,-0.01 -0.08,-0.02 v 0 c -0.02,-0.01 -0.04,-0.01 -0.06,-0.02 -0.02,-0.01 -0.04,-0.01 -0.05,-0.02 -0.01,0 -0.01,0 -0.02,0 -0.92,-0.27 -1.86,-0.41 -2.8,-0.42 -0.01,0 -0.03,0 -0.04,0 -0.01,0 -0.02,0 -0.02,0"
           style="fill:#d3e7dc;fill-opacity:1;fill-rule:nonzero;stroke:none"
           id="path298" /><path
           d="m 1232.2993,2545.1316 h -21.5 v 69.13 h 21.5 v -69.13 m 0,110.51 h -21.5 v 0.5 h 21.5 v -0.5"
           style="fill:#bbe7c8;fill-opacity:1;fill-rule:nonzero;stroke:none"
           id="path300" /><path
           d="m 1210.7993,2614.2616 h 21.5 v 41.3789 h -21.5 z"
           style="fill:#b1e3c0;fill-opacity:1;fill-rule:nonzero;stroke:none"
           id="path302" /><path
           d="m 1210.7993,2656.1416 h 21.5 v 110.031 h -21.5 z"
           style="fill:#80d3b3;fill-opacity:1;fill-rule:nonzero;stroke:none"
           id="path304" /><path
           d="m 1210.7993,2545.1316 h -199.55 v 24.58 h 188.46 v 196.46 h 11.09 v -110.03 -0.5 -41.38 -69.13"
           style="fill:#88d5a4;fill-opacity:1;fill-rule:nonzero;stroke:none"
           id="path306" /><path
           d="m 1199.7093,2569.7116 h -188.46 v 196.46 h 188.46 v -196.46 m -100.03,86.66 c -16.77,-5.91 -30.45,-18.36 -37.98,-34.29 -6.21,-13.15 3.31,-28.35 17.86,-28.35 h 84.42 c 14.55,0 24.08,15.2 17.86,28.35 -7.53,15.93 -21.21,28.38 -37.98,34.29 3.8,4.8 6.06,10.86 6.06,17.45 v 16.89 c 0,15.55 -12.6,28.16 -28.15,28.16 -15.55,0 -28.15,-12.61 -28.15,-28.16 v -16.89 c 0,-6.59 2.27,-12.65 6.06,-17.45"
           style="fill:#b0e3c7;fill-opacity:1;fill-rule:nonzero;stroke:none"
           id="path308" /><path
           d="m 1143.8593,2656.3716 c -6.91,2.44 -14.35,3.77 -22.09,3.77 -7.75,0 -15.18,-1.33 -22.09,-3.77 -3.79,4.8 -6.06,10.86 -6.06,17.45 v 16.89 c 0,15.55 12.6,28.16 28.15,28.16 15.55,0 28.15,-12.61 28.15,-28.16 v -16.89 c 0,-6.59 -2.26,-12.65 -6.06,-17.45"
           style="fill:#f0fafa;fill-opacity:1;fill-rule:nonzero;stroke:none"
           id="path310" /><path
           d="m 1163.9793,2593.7316 h -84.42 c -14.55,0 -24.07,15.2 -17.86,28.35 7.53,15.93 21.21,28.38 37.98,34.29 6.91,2.44 14.34,3.77 22.09,3.77 7.74,0 15.18,-1.33 22.09,-3.77 16.77,-5.91 30.45,-18.36 37.98,-34.29 6.22,-13.15 -3.31,-28.35 -17.86,-28.35"
           style="fill:#f0fafa;fill-opacity:1;fill-rule:nonzero;stroke:none"
           id="path312" /><path
           d="m 1082.9493,3369.2516 h 65.89 v -432.9 h -65.89 v 432.9"
           style="fill:#a1ddb3;fill-opacity:1;fill-rule:nonzero;stroke:none"
           id="path314" /><path
           d="m 1206.4493,3113.6016 v 0 158.21 c 7.15,0 12.94,-5.8 12.94,-12.94 v -132.33 c 0,-7.15 -5.79,-12.94 -12.94,-12.94"
           style="fill:#5dc585;fill-opacity:1;fill-rule:nonzero;stroke:none"
           id="path316" /><path
           d="m 617.29934,2966.2416 v 36.2 h 11.02 v -3.76 l -11.02,-32.44 m 11.02,403 h -11.02 v 128.6 c 0,17.1 13.9,31 30.9,31 h 160.9 v -0.01 h -160.87 c -17.06,0 -30.9,-13.94 -30.9,-31 v -75.5 h 155.47 l -0.01,-0.03 h -144.47 v -53.06"
           style="fill:#3eb57a;fill-opacity:1;fill-rule:nonzero;stroke:none"
           id="path318" /><path
           d="m 772.79934,3422.3316 h -155.47 v 75.5 c 0,17.06 13.84,31 30.9,31 h 160.87 l -36.3,-106.5"
           style="fill:#3eb57a;fill-opacity:1;fill-rule:nonzero;stroke:none"
           id="path320" /><path
           d="m 628.31934,2998.6816 v 3.76 h 1.28 l -1.28,-3.76 m 126.38,370.56 h -126.38 v 53.06 h 144.47 l -18.09,-53.06"
           style="fill:#a2cbdb;fill-opacity:1;fill-rule:nonzero;stroke:none"
           id="path322" /><path
           d="m 617.29934,3002.4416 h -24.11 v 316.63 c 7.72,-12.04 15.76,-24.12 24.11,-36.2 v -280.43 m 0,297.84 c -8.37,12.4 -16.41,24.8 -24.11,37.16 v 31.8 h 24.11 v -68.96"
           style="fill:#b6c0a9;fill-opacity:1;fill-rule:nonzero;stroke:none"
           id="path324" /><path
           d="m 617.29934,3282.8716 c -8.35,12.08 -16.39,24.16 -24.11,36.2 v 18.37 c 7.7,-12.36 15.74,-24.76 24.11,-37.16 v -17.41"
           style="fill:#a0bfa1;fill-opacity:1;fill-rule:nonzero;stroke:none"
           id="path326" /><path
           d="m 628.31934,3002.4416 h -11.02 v 366.8 h 11.02 v -366.8"
           style="fill:#6fb87f;fill-opacity:1;fill-rule:nonzero;stroke:none"
           id="path328" /><path
           d="m 629.59934,3002.4416 h -1.28 v 366.8 h 126.38 l -2.57,-7.52 -123.81,-123.81 v -214.35 l 12.88,12.88 -11.6,-34"
           style="fill:#aebfb0;fill-opacity:1;fill-rule:nonzero;stroke:none"
           id="path330" /><path
           d="m 628.31934,3023.5616 v 214.35 l 123.81,123.81 -110.93,-325.28 -12.88,-12.88"
           style="fill:#b2c4bc;fill-opacity:1;fill-rule:nonzero;stroke:none"
           id="path332" /><path
           d="m 321.58934,2412.6416 h 972.92996 c 11.43,0 20.7,9.26 20.7,20.69 0,11.44 -9.27,20.7 -20.7,20.7 H 321.58934 c -11.43,0 -20.69,-9.26 -20.69,-20.7 0,-11.43 9.26,-20.69 20.69,-20.69"
           style="fill:#e4e4e3;fill-opacity:1;fill-rule:nonzero;stroke:none"
           id="path334" /><path
           d="m 498.62934,2488.6216 17.44,83.55 -35.54,5.32 -10.01,-87.07 28.11,-1.8"
           style="fill:#dadfee;fill-opacity:1;fill-rule:nonzero;stroke:none"
           id="path336" /><path
           d="m 463.71934,2500.5616 c -2.29,-0.33 -4.47,-1.18 -6.22,-2.62 -12.17,-10.1 -49.15,-28.16 -68.13,-30.9 -20.35,-2.94 -21.39,-13.01 7.23,-13.01 28.64,0 49.63,2.55 62.4,2.23 12.76,-0.33 9.44,-2.23 40.84,-2.23 24.09,0 16.55,30.73 7.93,45.01 -2.63,4.35 -6.16,6.81 -11.39,6.07 l -32.66,-4.55"
           style="fill:#354c87;fill-opacity:1;fill-rule:nonzero;stroke:none"
           id="path338" /><path
           d="m 697.85934,2635.4916 -65.57,54.63 -21.39,-28.88 72.17,-49.74 14.79,23.99"
           style="fill:#dadfee;fill-opacity:1;fill-rule:nonzero;stroke:none"
           id="path340" /><path
           d="m 671.58934,2615.1516 c -2.18,-5.16 0.05,-14.43 0.82,-16.56 5.42,-14.85 10,-55.76 6.21,-74.56 -4.08,-20.15 5.06,-24.52 14.68,2.44 9.62,26.98 14.27,47.6 18.87,59.52 4.6,11.91 4.62,8.38 15.83,37.71 5.63,14.73 -17.83,27.74 -34.18,24.41 -4.98,-1 -6.38,-2.08 -9.55,-8.69 -3.16,-6.61 -10.49,-19.12 -12.68,-24.27"
           style="fill:#354c87;fill-opacity:1;fill-rule:nonzero;stroke:none"
           id="path342" /><path
           d="m 484.59934,3795.1416 c -12.2,10.2 -30.2,8.5 -40.4,-3.6 -25.5,-30.5 -53.2,-60.1 -76.8,-82.6 -22.8,-21.8 -36.07,-36.13 -51,-40.2 -38.7,9 -107.2,107.4 -142.2,172.6 l -0.76,1.14 c -0.58,0.95 -1.18,1.87 -1.86,2.75 l -1.62,1.92 -2.09,2.06 -2.13,1.71 -2.26,1.49 -2.61,1.36 -2.33,0.95 c -1.03,0.37 -2.06,0.65 -3.13,0.9 l -1.35,0.39 c -13.4,3.04 -34.49,-5.83 -53.14,1.48 -21.25,8.33 -48.97,19.01 -46.88,3.33 2.85,-21.35 14.91,-37.15 29.59,-43.02 15.62,-6.25 56.05,-1.35 69.37,-3.91 27.11,-48.33 84.39,-191.65 157.5,-202.25 1.6,-0.3 3.2,-0.4 5,-0.4 22.1,0 53.4,19.3 93.6,57.6 23.4,22.3 49.8,51 79.1,86 10.1,12.1 8.5,30.2 -3.6,40.3"
           style="fill:#f8a075;fill-opacity:1;fill-rule:nonzero;stroke:none"
           id="path344" /><path
           d="m 488.75934,4020.4516 c -38.19,20.52 -44.12,-54.33 -31.81,-78.77 13.26,-26.33 52.33,-49.24 63.11,-27.89 14,27.74 20.2,78.99 -31.3,106.66"
           style="fill:#e0611c;fill-opacity:1;fill-rule:nonzero;stroke:none"
           id="path346" /><path
           d="m 488.19934,3754.8416 c -29.3,-35 -55.7,-63.7 -79.1,-86 l -41.7,40.1 c 23.6,22.5 51.3,52.1 76.8,82.6 10.2,12.1 28.2,13.8 40.4,3.6 12.1,-10.1 13.7,-28.2 3.6,-40.3"
           style="fill:#ed7a51;fill-opacity:1;fill-rule:nonzero;stroke:none"
           id="path348" /><path
           d="m 498.42934,3745.4716 c -24.39,-23.33 -49.64,-48.23 -73.97,-72.66 l -57.47,55.28 c 29.54,29.4 56.95,56.02 76.49,74.74 15.86,15.2 40.96,14.66 56.15,-1.2 15.26,-15.72 14.66,-40.97 -1.2,-56.16"
           style="fill:#4ec3bb;fill-opacity:1;fill-rule:nonzero;stroke:none"
           id="path350" /><path
           d="m 609.79934,3842.1416 c 0.3,-25.3 -2.8,-57.3 -17,-79.8 -17.4,-27.7 -20.8,-33.3 -21.2,-33.9 -6.3,-10.5 -17.5,-16.4 -29,-16.4 -5.9,0 -11.9,1.6 -17.3,4.8 -16,9.6 -21.3,30.3 -11.7,46.3 0,0 2.7,4.7 22,35.2 3.3,5.2 5.2,15.2 6,26.9 1,14.2 0.3,31.1 -1.7,45.1 -2.8,18.5 10,35.7 28.5,38.4 18.5,2.8 35.6,-9.9 38.4,-28.4 0.8,-5.4 2.7,-20.1 3,-38.2"
           style="fill:#f8a075;fill-opacity:1;fill-rule:nonzero;stroke:none"
           id="path352" /><path
           d="m 692.62934,3786.6316 c -16.76,-96.03 -49.46,-337.14 -42.36,-434.14 h -240.88 c 0,0 14.52,357.31 37.34,444.37 2.74,10.43 12.24,17.65 23.02,17.65 h 199.39 c 14.79,0 26.03,-13.32 23.49,-27.88"
           style="fill:#5fcacc;fill-opacity:1;fill-rule:nonzero;stroke:none"
           id="path354" /><path
           d="m 639.79934,3195.6916 c 0,0 29.33,53.79 10.47,156.8 h -240.88 c 0,0 -3.42,-78.41 2.11,-156.8 h 228.3"
           style="fill:#354c87;fill-opacity:1;fill-rule:nonzero;stroke:none"
           id="path356" /><path
           d="m 688.99934,2657.5416 -36,-34.8 c -18.2,9.1 -47.6,28.4 -80.1,53.8 -30.3,23.7 -63.4,52.6 -92.5,83.5 -42.2,44.5 -76.4,93 -82.8,135.3 -14.5,96 12.6,321.5 16,346.2 3.7,26.4 30.6,38.6 56.9,34.9 26.4,-3.7 51.8,-29.3 48.2,-55.6 -8.8,-63.3 -36.4,-241.5 -25.9,-311.2 0.5,-3.4 1.5,-7.2 2.8,-11.2 10.8,-31.6 46.7,-80.7 88.6,-129.9 34.3,-40.1 72.7,-80.2 104.8,-111"
           style="fill:#354c87;fill-opacity:1;fill-rule:nonzero;stroke:none"
           id="path358" /><path
           d="m 584.19934,2768.5416 c -3.4,-29.7 -7.3,-61.5 -11.3,-92 -30.3,23.7 -63.4,52.6 -92.5,83.5 4.1,45.3 8.3,87.2 12,114.3 1.1,7.8 2.1,15.8 3.2,24.1 10.8,-31.6 46.7,-80.7 88.6,-129.9"
           style="fill:#263c61;fill-opacity:1;fill-rule:nonzero;stroke:none"
           id="path360" /><path
           d="m 461.43934,2530.6116 c 0.52,2.64 18.76,254.09 30.94,343.75 19.23,141.63 48.57,369.23 48.97,371.57 4.49,26.21 42.5,41.48 68.65,36.93 26.21,-4.48 43.82,-29.36 39.33,-55.58 -0.39,-2.32 -39.45,-231.27 -68.2,-372.92 -8.13,-100 -61.28,-323.82 -63.44,-334.69"
           style="fill:#354c87;fill-opacity:1;fill-rule:nonzero;stroke:none"
           id="path362" /><path
           d="m 609.79934,3842.1416 c -16.9,-11 -37,-17.4 -58.6,-17.4 -3.2,0 -6.4,0.1 -9.6,0.5 1,14.2 0.3,31.1 -1.7,45.1 -2.8,18.5 10,35.7 28.5,38.4 18.5,2.8 35.6,-9.9 38.4,-28.4 0.8,-5.4 2.7,-20.1 3,-38.2"
           style="fill:#ed7a51;fill-opacity:1;fill-rule:nonzero;stroke:none"
           id="path364" /><path
           d="m 457.99934,3948.7516 c 0,-59.4 32.55,-107.56 91.25,-107.56 46.25,0 117.56,48.16 117.56,107.56 0,59.41 -48.17,107.57 -107.57,107.57 -59.41,0 -101.24,-48.16 -101.24,-107.57"
           style="fill:#f8a075;fill-opacity:1;fill-rule:nonzero;stroke:none"
           id="path366" /><path
           d="m 824.29934,3549.2416 c 0.7,24.4 -30.4,82.5 -65.8,140.4 -21.9,35.9 -45.5,71.8 -64.3,99.6 -8.9,13.1 -26.6,16.5 -39.8,7.7 -13.1,-8.9 -16.5,-26.7 -7.7,-39.8 21.4,-31.8 43.8,-66.5 63.4,-98.5 25.4,-41.6 41.9,-69.05 49.7,-88.75 -29.51,-10.9 -106,-32.85 -174.1,-38.85 -7.93,-0.71 -14.84,-4.62 -19.56,-10.35 l -0.04,-0.06 c -2.18,-2.64 -21.5,-26.76 -31.38,-57.7 -4.82,-15.06 -10.79,-47.77 4.84,-45.44 15.72,2.34 24.03,9.3 31.57,11.87 11.87,4.07 14.23,3.98 18.12,16.15 3.75,11.74 3.1,46.95 7.81,54.17 218.89,20.71 226.75,29.46 227.24,49.56"
           style="fill:#f8a075;fill-opacity:1;fill-rule:nonzero;stroke:none"
           id="path368" /><path
           d="m 507.37934,2519.6716 -4.95,0.8 c 0.4,2.45 37.37,229.67 58.67,340.03 21.27,110.28 58.84,372.62 59.22,375.26 10.41,37.56 8.07,71.97 3.31,120.24 l 4.99,0.48 c 3.91,-39.73 7.96,-80.82 -3.41,-121.74 -0.32,-2.32 -37.91,-264.79 -59.21,-375.18 -21.28,-110.3 -58.23,-337.44 -58.62,-339.89"
           style="fill:#7192c7;fill-opacity:1;fill-rule:nonzero;stroke:none"
           id="path370" /><path
           d="m 653.99934,4034.7116 c -31.9,29.37 -56.24,-41.66 -50.39,-68.39 6.29,-28.8 38.45,-60.71 54.19,-42.71 20.47,23.39 39.2,71.5 -3.8,111.1"
           style="fill:#e0611c;fill-opacity:1;fill-rule:nonzero;stroke:none"
           id="path372" /><path
           d="m 550.89934,3846.1016 c 19.53,15.59 -18.79,35.7 -34.54,34.72 -16.95,-1.06 -37.96,-16.58 -29.08,-27.13 11.52,-13.71 37.28,-28.61 63.62,-7.59"
           style="fill:#e0611c;fill-opacity:1;fill-rule:nonzero;stroke:none"
           id="path374" /><path
           d="m 632.55934,4017.1016 c -26.17,-18.66 -161.25,-21.54 -183.95,11.73 0,0 13.62,-2.89 26.82,1.24 0,0 -25.99,10.73 -35.08,23.1 0,0 32.19,-1.95 62.31,10.58 30.13,12.53 90.95,29.73 130.22,-4.11 39.27,-33.83 -0.32,-42.54 -0.32,-42.54"
           style="fill:#e0611c;fill-opacity:1;fill-rule:nonzero;stroke:none"
           id="path376" /><path
           d="m 673.99934,3917.3516 c -2.24,-11.49 -9.42,-20.77 -18.9,-26.07 -11.11,-6.2 -24.37,3.94 -21.93,16.43 l 6.62,33.93 c 2.44,12.49 18.53,16.9 26.49,6.98 6.8,-8.47 9.96,-19.77 7.72,-31.27"
           style="fill:#f8a075;fill-opacity:1;fill-rule:nonzero;stroke:none"
           id="path378" /><path
           d="m 511.65934,3814.5116 c -6,-20.96 13.82,-33.33 48.55,-28.44 24.25,3.42 50.28,14.4 70.18,28.44 h -118.73"
           style="fill:#f8a075;fill-opacity:1;fill-rule:nonzero;stroke:none"
           id="path380" /><path
           d="m 758.49934,3689.6416 -48.4,-31 c -19.6,32 -42,66.7 -63.4,98.5 -8.8,13.1 -5.4,30.9 7.7,39.8 13.2,8.8 30.9,5.4 39.8,-7.7 18.8,-27.8 42.4,-63.7 64.3,-99.6"
           style="fill:#ed7a51;fill-opacity:1;fill-rule:nonzero;stroke:none"
           id="path382" /><path
           d="m 637.60934,3751.3516 c 19.39,-27.62 39.33,-56.96 58.46,-85.64 l 67.1,43.06 c -23.26,34.58 -44.98,66.01 -60.51,88.18 -12.61,17.99 -37.34,22.33 -55.32,9.72 -18.02,-12.45 -22.34,-37.33 -9.73,-55.32"
           style="fill:#5fcacc;fill-opacity:1;fill-rule:nonzero;stroke:none"
           id="path384" /><path
           d="m 525.49934,3193.7416 h -5 v 162.5 h 5 v -162.5"
           style="fill:#7192c7;fill-opacity:1;fill-rule:nonzero;stroke:none"
           id="path386" /><path
           d="m 522.99934,3220.4416 c -15.15,0 -27.47,12.32 -27.47,27.47 v 108.33 h 5 v -108.33 c 0,-12.39 10.08,-22.47 22.47,-22.47 v -5"
           style="fill:#7192c7;fill-opacity:1;fill-rule:nonzero;stroke:none"
           id="path388" /><path
           d="m 150.39934,3875.5216 -107.59,55.92 55.91,107.58 107.59,-55.91 -55.91,-107.59"
           style="fill:#fddf9b;fill-opacity:1;fill-rule:nonzero;stroke:none"
           id="path390" /><path
           d="m 24.10934,3910.4016 -19.9799995,10.39 10.3799995,19.97 8.88,-4.61 -5.78,-11.11 11.11,-5.77 -4.61,-8.87"
           style="fill:#fddf9b;fill-opacity:1;fill-rule:nonzero;stroke:none"
           id="path392" /><path
           d="m 234.16934,3973.3416 -8.87,4.61 5.78,11.1 -11.12,5.77 4.61,8.88 19.98,-10.38 -10.38,-19.98"
           style="fill:#fddf9b;fill-opacity:1;fill-rule:nonzero;stroke:none"
           id="path394" /><path
           d="m 246.56934,3897.5316 -75.28,-4.13 -2.93,53.32 75.28,4.13 2.93,-53.32"
           style="fill:#5fcacc;fill-opacity:1;fill-rule:nonzero;stroke:none"
           id="path396" /><path
           d="m 166.44934,4021.9316 -34.02,23.47 23.46,34.01 34.01,-23.46 -23.45,-34.02"
           style="fill:#a0e0ee;fill-opacity:1;fill-rule:nonzero;stroke:none"
           id="path398" /></g></g></g></svg>