<svg xmlns="http://www.w3.org/2000/svg" height="666.667" width="783.173"><defs><clipPath id="a" clipPathUnits="userSpaceOnUse"><path d="M4747.19 3965.94v-2930c0-19.3-15.71-35-35-35H282.188c-19.301 0-35 15.7-35 35v2930c0 19.3 15.699 35 35 35H4712.19c19.29 0 35-15.7 35-35"/></clipPath><clipPath id="b" clipPathUnits="userSpaceOnUse"><path d="M3417.2 2006.2h-286.28l71.17 71.16c9.97-2.82 20.49-4.32 31.36-4.32 63.63 0 115.21 51.58 115.21 115.21 0 10.87-1.5 21.38-4.31 31.35l72.85 72.84V2006.2m-393.46 0h-19.64l11.6 34 109.23 109.24c3.55-9.92 8.42-19.22 14.4-27.67l-115.59-115.57m276.2 276.16a114.845 114.845 0 0 1-27.68 14.4l76.23 76.24h42.11l-90.66-90.64m-173.31 83.12l2.57 7.52h4.96l-7.53-7.52"/></clipPath></defs><g clip-path="url(#a)" transform="matrix(.25622 0 0 -.25622 -430.122 1025.486)"><path d="M2558.31 2319.64c36.56-76.52 177.49-371.42 510.82-523 70.9-32.25 404.25-183.84 684.91-45.33 371.36 183.26 253.73 678.61 599.37 926.27 150.88 108.11 308.44 59.94 473.74 11.77 160.3-46.71 327.88-93.42 503.73 2.38 186.46 101.59 335.21 321.3 339.95 517.87 14.78 613.5-1357.83 1644.13-2367.85 1145.22-735.2-363.15-1039.29-1418.7-744.67-2035.18" fill="#eaf8f4"/><path d="M3370.01 3230.56c-63.12 0-127.63-12.74-193.94-46.77-177.95-91.3-318.71-294.42-327.42-472.49-12.9-263.75 246.69-621.67 645.96-890.66 519.3-349.84 1093.51-436.26 1536.04-231.14 320.95 148.75 586.52 455.97 728.6 842.88 134.75 366.97 139.62 754.88 13 1037.64v.01c-129.53 289.27-323.54 430.91-463.48 498.79-239.8 116.31-465.5 136.99-635.56 58.27-181.31-83.95-241.19-247.86-304.58-421.39-58.01-158.76-117.99-322.93-277.05-431.04-143.63-97.6-288.19-51.54-441.27-2.76-91.09 29.03-184.07 58.66-280.3 58.66m1143.38-1760.53c-331.31-.01-689.28 116.58-1024.37 342.32-402.07 270.87-663.42 632.33-650.35 899.44 8.87 181.35 151.97 388.1 332.83 480.9 171.1 87.78 329.07 37.43 481.85-11.26 150.67-48.03 293-93.4 432.61 1.5 156.4 106.3 215.82 268.93 273.28 426.21 64.13 175.53 124.7 341.33 309.77 427.02 172.82 80.01 401.58 59.3 644.12-58.35 141.44-68.6 337.5-211.68 468.24-503.7v.01c127.66-285.1 122.9-675.82-12.74-1045.18-142.98-389.39-410.44-698.66-733.78-848.52-159.71-74.02-336.44-110.39-521.46-110.39" fill="#b4e5d7"/></g><path d="M252.757 450.196a5.316 5.316 0 1 1-10.633 0 5.317 5.317 0 1 1 10.633 0" fill="#60c8a7"/><path d="M219.561 428.869a6.437 6.437 0 0 0-6.43 6.428 6.438 6.438 0 0 0 6.43 6.431 6.44 6.44 0 0 0 6.431-6.43 6.44 6.44 0 0 0-6.43-6.43zm0 19.877c-7.415 0-13.451-6.031-13.451-13.449 0-7.415 6.036-13.449 13.451-13.449 7.418 0 13.449 6.034 13.449 13.45 0 7.417-6.031 13.448-13.449 13.448" fill="#fbc038"/><path d="M606.923 185.19h-4.52v4.52c0 2.045-1.652 3.7-3.699 3.7a3.698 3.698 0 0 1-3.7-3.7v-4.52h-4.522a3.699 3.699 0 0 1-3.7-3.702 3.7 3.7 0 0 1 3.7-3.702h4.522v-4.515a3.699 3.699 0 0 1 3.7-3.702c2.047 0 3.7 1.655 3.7 3.702v4.515h4.52a3.7 3.7 0 0 1 3.7 3.702 3.699 3.699 0 0 1-3.7 3.703" fill="#60c8a7"/><path d="M643.296 161.698a5.319 5.319 0 1 1-10.634-.004 5.319 5.319 0 0 1 10.634.004M368.395 281.205c-16.008-40.192-7.758-87.726 24.75-120.235 15.707-15.706 34.895-25.734 55.103-30.087l11.883 54.27c-25.204 5.487-44.049 27.93-44.049 54.725 0 7.343 1.397 14.343 3.972 20.738l-51.659 20.59" fill="#354c87"/><path d="M393.146 318.785a86.783 86.783 0 0 1-2.537-2.688l40.572-37.958c10.218 10.899 24.75 17.712 40.91 17.712 30.918 0 55.974-25.053 55.974-55.973 0-22.027-12.716-41.1-31.223-50.222l24.6-49.842c10.674 5.225 20.702 12.301 29.557 21.156 43.56 43.56 43.56 114.255 0 157.815-43.598 43.598-114.294 43.56-157.853 0" fill="#fff"/><path d="M472.092 183.866c-4.126 0-8.138.456-11.96 1.286l-11.884-54.27c24.412-5.372 50.336-2.42 73.194 8.932l-24.6 49.842c-7.456-3.71-15.857-5.79-24.75-5.79" fill="#60c8a7"/><path d="M390.61 316.097a109.998 109.998 0 0 1-22.215-34.892l51.659-20.59c2.572 6.55 6.395 12.453 11.127 17.524l-40.572 37.958" fill="#c4ecf0"/><path d="M726.392 214.994v373.795c0 6.3-5.124 11.402-11.401 11.402H476.017a11.396 11.396 0 0 1-11.402-11.402V214.994c0-6.303 5.099-11.453 11.402-11.453H714.99c6.277 0 11.401 5.15 11.401 11.453" fill="#5fcacc"/><path d="M438.212 610.921h314.581a5.302 5.302 0 0 0 0-10.602H438.212a5.302 5.302 0 0 0 0 10.602" fill="#e4e4e3"/><path d="M726.387 214.984v27.86h-261.77v-27.86c0-6.3 5.11-11.443 11.407-11.443h238.957c6.297 0 11.406 5.142 11.406 11.443" fill="#5fcacc"/><path d="M595.504 590.386c-5.93 0-10.733-4.804-10.733-10.733 0-5.924 4.804-10.73 10.733-10.73 5.924 0 10.73 4.806 10.73 10.73 0 5.929-4.806 10.733-10.73 10.733M494.744 227.22a4.36 4.36 0 0 1-4.361-4.36 4.36 4.36 0 0 1 4.36-4.361 4.362 4.362 0 0 1 4.362 4.36 4.362 4.362 0 0 1-4.361 4.361m13.897 0a4.363 4.363 0 0 1-4.363-4.36 4.363 4.363 0 0 1 8.724 0 4.36 4.36 0 0 1-4.361 4.36" fill="#e8f7e9"/><path d="M468.676 557.508h253.635V242.852H468.676z" fill="#d6f2f9"/><path d="M430.077 348.26h83.985v-37.262h-83.985zm51.243 94.898h83.986v-37.262H481.32zm-25.621-47.449h83.985v-37.262h-83.985z" fill="#aee4e7"/><path d="M481.32 298.395h226.5v-42.38h-226.5z" fill="#f0faf5"/><path d="M701.04 292.264h-30.116v-30.116h30.116v30.116" fill="#d6edf5"/><path d="M495.956 269.783h65.189v-5.808h-65.19zm0 10.326h65.189v-5.81h-65.19zm0 10.328h43.887v-5.808h-43.887z" fill="#ade2c3"/><path d="M726.392 524.023h24.221v-86.945h-24.22z" fill="#c9ecd5"/><path d="M722.31 524.023h4.082v-86.945h-4.081z" fill="#7dd2be"/><path d="M722.31 524.023H565.307v-86.945h10.354v6.08h132.16v-6.08h14.49v86.945" fill="#b4e5d2"/><path d="M656.507 474.552h-72.712v-7.34h72.712v7.34m-17.262 13.047h-55.45v-7.338h55.45v7.338m-18.053 13.046h-37.397v-7.338h37.397v7.338m26.911 0h-22.289v-7.338h22.289v7.338m-13.749 13.05h-50.56v-7.338h50.56v7.338" fill="#e8f7e9"/><path d="M481.32 524.023h66.87v-66.868h-66.87z" fill="#a1ddb3"/><path d="M535.718 490.768c0 11.576-9.385 20.959-20.961 20.959-11.576 0-20.959-9.383-20.959-20.959s9.383-20.96 20.959-20.96 20.961 9.384 20.961 20.96" fill="#7acf93"/><path d="M530.64 490.766c0 5.257-2.547 9.902-6.475 12.795a15.74 15.74 0 0 1-6.943 2.9c-.802.129-1.622.193-2.465.193a16.23 16.23 0 0 1-4.717-.71c-6.472-2.014-11.163-8.05-11.163-15.178 0-2.483.57-4.825 1.583-6.916a15.833 15.833 0 0 1 5.506-6.305 15.58 15.58 0 0 1 1.722-1.007 15.942 15.942 0 0 1 7.069-1.653c6.741 0 12.511 4.205 14.799 10.136a15.613 15.613 0 0 1 1.084 5.745" fill="#f2f7f7"/><path d="M514.757 492.605a1.838 1.838 0 0 1-1.835-1.837v-10.172c0-1.012.823-1.837 1.835-1.837 1.015 0 1.837.825 1.837 1.837v10.172a1.839 1.839 0 0 1-1.837 1.837" fill="#c2dbcc"/><path d="M514.76 492.605a1.843 1.843 0 0 1-1.558-.86 1.841 1.841 0 0 1 .579-2.535l5.28-3.312a1.837 1.837 0 0 1 1.953 3.113l-5.28 3.312c-.303.19-.641.282-.975.282" fill="#c2dbcc"/><path d="M575.66 443.158h132.159v-132.16h-132.16z" fill="#a0e0ee"/><path d="M641.74 383.04c-9.295 0-16.833-7.536-16.833-16.832v-10.097c0-9.296 7.538-16.831 16.834-16.831 9.295 0 16.828 7.535 16.828 16.83v10.098c0 9.296-7.533 16.831-16.828 16.831" fill="#fafdfb"/><path d="M641.74 374.394c-15.864 0-29.554 9.304-35.913 22.752-3.718 7.864 1.978 16.95 10.676 16.95h50.473c8.7 0 14.397-9.086 10.674-16.95-6.357-13.448-20.05-22.752-35.91-22.752" fill="#fafdfb"/><path d="M481.32 539.234h226.5v-10.777h-226.5z" fill="#fddf9b"/><path d="M724.796 306.722v-39.39a5.082 5.082 0 0 1 5.084 5.083v29.224a5.082 5.082 0 0 1-5.084 5.083m0 43.957v-39.391a5.082 5.082 0 0 1 5.084 5.083v29.224a5.082 5.082 0 0 1-5.084 5.084" fill="#5fcacc"/><path d="M500.24 358.447h-31.564V348.26h41.75l-10.186 10.187m13.823-13.825v-33.624h-45.387v-.092l12.645-12.647v.136h78.968l-46.226 46.227m88.607-88.608h-79.102l13.16-13.162h79.104l-13.162 13.162" fill="#e0f5fb"/><path d="M510.427 348.26h-41.75v-37.262h45.386v33.624l-3.636 3.638m-28.458 28.458a7.856 7.856 0 0 0-1.417-.128h-11.876v-18.143h31.564l-18.271 18.271" fill="#c4ecee"/><path d="M560.29 298.395h-78.97v-.136l18.154-18.15h61.671V274.3h-55.863l4.517-4.517h51.346v-5.808h-45.537l7.96-7.96h79.102l-42.38 42.38m-64.334-13.766v5.808h43.887v-5.808h-43.887" fill="#f2fbf7"/><path d="M561.145 269.783h-51.346l5.809-5.808h45.537v5.808m0 10.326h-61.671l5.808-5.809h55.863v5.809m-65.189 10.328h43.887v-5.808h-43.887z" fill="#c3ead3"/><path d="M513.25 400.508a7.928 7.928 0 0 0-2.234-.32h-22.521v-4.479h29.554l-4.799 4.799m26.434-26.431v-15.63h-23.923l60.063-60.052h39.552l-12.603 12.603H575.66v27.108l-35.976 35.97m118.078-118.062h-39.55l13.162-13.162h39.55l-13.162 13.162" fill="#e0f5fb"/><path d="M518.05 395.709h-29.555v-10l27.266-27.262h23.923v15.63l-21.635 21.632" fill="#c4ecee"/><path d="M615.376 298.395h-39.552l42.388-42.38h39.55l-42.386 42.38" fill="#f2fbf7"/><path d="M575.66 338.106v-27.108h27.113l-27.113 27.108" fill="#bae8f2"/><path d="M518.933 600.191h-24.93v-28.192h-5.508v-14.491h30.438v42.683" fill="#46abb7"/><path d="M518.933 557.508h-30.438v-18.274h30.438v18.274m0-29.05h-30.438v-4.435h30.438v4.435m0-71.303h-30.438v-13.997h30.438v13.997m-.317-51.259h-10.754l5.388-5.388a7.94 7.94 0 0 1 5.366 5.388" fill="#a2cbdb"/><path d="M518.933 443.158h-30.438v-17.9l19.367-19.362h10.754c.207.707.317 1.458.317 2.234v35.028" fill="#82bac7"/><path d="M518.933 524.023h-30.438v-66.868h30.438v9.111c1.281.461 2.23 1.64 2.23 3.075v1.463a20.996 20.996 0 0 0-6.406-.997c-11.576 0-20.959 9.385-20.959 20.961 0 11.576 9.383 20.959 20.959 20.959 1.43 0 2.826-.144 4.176-.415v12.71" fill="#73c9a2"/><path d="M514.757 511.727c-11.576 0-20.959-9.383-20.959-20.959s9.383-20.96 20.959-20.96c2.234 0 4.386.35 6.405.996v5.426a15.811 15.811 0 0 0-6.405-1.345 15.942 15.942 0 0 0-7.07 1.653 15.58 15.58 0 0 0-1.72 1.007 15.833 15.833 0 0 0-5.507 6.305 15.817 15.817 0 0 0-1.583 6.916c0 7.128 4.69 13.164 11.163 15.178 1.494.454 3.08.71 4.717.71a15.602 15.602 0 0 0 3.656-.426c.51-.12 1.012-.266 1.504-.433a3.527 3.527 0 0 1-.984.544v4.973c-1.35.271-2.746.415-4.176.415" fill="#55b986"/><path d="M514.757 506.654a16.23 16.23 0 0 1-4.717-.71c-6.472-2.014-11.163-8.05-11.163-15.178 0-2.483.57-4.825 1.583-6.916a15.833 15.833 0 0 1 5.506-6.305 15.58 15.58 0 0 1 1.722-1.007 15.942 15.942 0 0 1 7.069-1.653c2.278 0 4.445.48 6.405 1.345v9.773a1.84 1.84 0 0 0-2.1-.105l-2.468 1.55v-6.852a1.839 1.839 0 0 0-1.837-1.837 1.838 1.838 0 0 0-1.835 1.837v10.175c-.002.333.09.669.28.973.169.27.4.482.66.626 0 .002.003.002.003.002l.008.005a1.8 1.8 0 0 0 .869.228h.017c.334 0 .672-.092.974-.282l5.28-3.312c.052-.034.103-.067.15-.105v14.358c0 1.035-.493 1.934-1.246 2.531a16.292 16.292 0 0 1-2.695.667c-.802.128-1.622.192-2.465.192" fill="#b8c5d0"/><path d="M514.757 492.605h-.005.007-.002m-.892-.233s-.002 0-.002-.002c0 .002.002.002.002.002m-.943-1.601v-10.175c0-1.012.823-1.837 1.835-1.837 1.015 0 1.837.825 1.837 1.837v6.852l-2.813 1.762a1.845 1.845 0 0 0-.859 1.56" fill="#90adae"/><path d="M514.76 492.605h-.019a1.876 1.876 0 0 1-.87-.228l-.007-.005s-.002 0-.002-.002a1.813 1.813 0 0 1-.661-.626 1.845 1.845 0 0 1 .58-2.534l2.812-1.762 2.467-1.55a1.84 1.84 0 0 1 2.101.105v2.903c-.046.038-.097.071-.148.105l-5.28 3.312c-.303.19-.641.282-.975.282" fill="#90adae"/><path d="M488.495 539.234h30.438v-10.777h-30.438z" fill="#bfb485"/><path d="M507.862 405.896h-19.367v-5.708h22.521a7.91 7.91 0 0 1 2.234.32l-5.388 5.388" fill="#a9cdda"/><path d="M488.495 425.259v-19.363h19.367l-19.367 19.363" fill="#94c1cc"/><path d="M488.495 384.533v259.522c0 4.382-3.562 7.918-7.943 7.918H344.347c-4.356 0-7.917-3.536-7.917-7.918V384.533c0-4.381 3.561-7.943 7.917-7.943h136.205c4.381 0 7.943 3.562 7.943 7.943" fill="#5dc585"/><path d="M488.482 384.535v19.345H336.437v-19.345c0-4.37 3.546-7.942 7.917-7.942h136.21c4.374 0 7.918 3.571 7.918 7.942" fill="#5dc585"/><path d="M412.46 645.165a7.452 7.452 0 1 1-.003-14.904 7.452 7.452 0 0 1 .003 14.904m-27.523-252.133a3.027 3.027 0 1 1 .001-6.054 3.027 3.027 0 0 1-.001 6.054m42.803-1.912h-30.118a1.115 1.115 0 0 1 0-2.231h30.118a1.115 1.115 0 1 1 0 2.231" fill="#e8f7e9"/><path d="M339.253 622.336h146.4V403.887h-146.4z" fill="#d6f2f9"/><path d="M351.034 528.396h26.552v-8.39h-26.552zm94.176 0h-26.555v-8.39h26.554v8.39m-33.813 0h-26.552v-8.39h26.552v8.39m62.712 36.284H366.963v-29.425h107.145v29.424" fill="#f0faf5"/><path d="M469.401 560.421h-20.907v-20.907H469.4v20.907" fill="#d7f1e1"/><path d="M406.672 544.812h-45.256v-4.033h45.256v4.033m0 7.169h-45.256v-4.03h45.256v4.03m-14.787 7.172h-30.47v-4.033h30.47v4.033" fill="#ade2c3"/><path d="M429.565 608.744h-78.308v-36.745h78.308v36.745" fill="#f0faf5"/><path d="M401.368 581.559h-39.952v-4.033h39.952v4.033m-9.483 7.169h-30.47v-4.033h30.47v4.033m-9.92 7.169h-20.55v-4.03h20.55v4.03" fill="#fddf9b"/><path d="M396.753 595.897h-12.25v-4.03h12.25v4.03" fill="#ade2c3"/><path d="M389.195 603.068h-27.78v-4.033h27.78v4.033" fill="#fddf9b"/><g clip-path="url(#b)" transform="matrix(.25622 0 0 -.25622 -430.122 1025.486)"><path d="M3004.1 2006.2h413.098v366.801H3004.1z" fill="#e7efcf"/></g><path d="M427.863 464.819c0 16.303-13.215 29.518-29.518 29.518-16.306 0-29.522-13.215-29.522-29.518 0-16.304 13.216-29.522 29.522-29.522 16.303 0 29.518 13.218 29.518 29.522" fill="#fbc038"/><path d="M420.71 464.813c0 7.405-3.582 13.949-9.114 18.023a22.368 22.368 0 0 1-5.414 2.941 22.657 22.657 0 0 1-4.366 1.143 21.5 21.5 0 0 1-3.471.271c-2.312 0-4.543-.358-6.644-1.001-9.116-2.832-15.724-11.335-15.724-21.377 0-3.494.807-6.794 2.231-9.733a22.266 22.266 0 0 1 7.756-8.888 22.367 22.367 0 0 1 2.426-1.415 22.202 22.202 0 0 1 5.837-1.95 22.317 22.317 0 0 1 4.118-.381c9.495 0 17.62 5.926 20.843 14.279a21.979 21.979 0 0 1 1.522 8.088" fill="#f2f7f7"/><path d="M398.345 467.406a2.589 2.589 0 0 1-2.588-2.587v-14.326a2.587 2.587 0 1 1 5.175 0v14.326a2.59 2.59 0 0 1-2.587 2.587" fill="#c2dbcc"/><path d="M398.347 467.406a2.588 2.588 0 0 1-1.376-4.781l7.436-4.665a2.593 2.593 0 0 1 3.566.817 2.59 2.59 0 0 1-.82 3.566l-7.435 4.666a2.56 2.56 0 0 1-1.37.397" fill="#c2dbcc"/><path d="M427.82 417.482h-54.915l13.597-13.595h54.915l-13.597 13.595" fill="#e0f5fb"/><path d="M342.553 502.752l28.422-83.343 1.93-1.927h54.915l-19.532 19.534a29.456 29.456 0 0 0-9.943-1.719c-16.306 0-29.522 13.218-29.522 29.522 0 3.49.605 6.835 1.717 9.943l-27.987 27.99" fill="#edf5e0"/><path d="M370.54 474.762a29.454 29.454 0 0 1-1.717-9.943c0-16.304 13.216-29.522 29.522-29.522 3.49 0 6.835.607 9.943 1.72l-5.813 5.81a22.596 22.596 0 0 0-4.13-.381c-1.405 0-2.778.13-4.118.381a22.202 22.202 0 0 0-5.837 1.95c-.837.426-1.655.892-2.426 1.415a22.266 22.266 0 0 0-7.756 8.888 22.251 22.251 0 0 0-2.231 9.733c0 1.412.13 2.793.381 4.133l-5.818 5.816" fill="#fad36c"/><path d="M376.358 468.946a22.42 22.42 0 0 1-.381-4.133c0-3.494.807-6.794 2.231-9.733a22.266 22.266 0 0 1 7.756-8.888 22.367 22.367 0 0 1 2.426-1.415 22.202 22.202 0 0 1 5.837-1.95 22.317 22.317 0 0 1 4.118-.381c1.411 0 2.792.133 4.13.381l-5.422 5.422a2.603 2.603 0 0 0-.953.956l-19.742 19.741" fill="#f4faf9"/><path d="M396.1 449.205c.228-.397.559-.728.953-.956l-.953.956" fill="#d3e7dc"/><path d="M339.253 544.28v-27.457l5.36-5.36h27.462l-8.543 8.542h-12.498v8.391h4.105l-15.886 15.883m106.171-106.156v-20.64h-6.815l13.598-13.596h27.458l-34.24 34.236" fill="#e0f5fb"/><path d="M355.139 528.396h-4.105v-8.39h12.498l-8.393 8.39" fill="#f2fbf7"/><path d="M372.075 511.463h-27.462l29.616-29.611c3.851 5.442 9.498 9.523 16.08 11.379l-18.234 18.232m54.684-54.677a29.583 29.583 0 0 0-11.379-16.08l23.23-23.224h6.814v20.641l-18.665 18.663" fill="#edf5e0"/><path d="M390.31 493.23a29.544 29.544 0 0 1-16.08-11.378l5.157-5.155a22.414 22.414 0 0 0 12.314 9.493c1.517.463 3.1.779 4.73.92l-6.121 6.12m30.32-30.318a21.747 21.747 0 0 0-1.442-6.187 22.383 22.383 0 0 0-8.963-10.864l5.155-5.155a29.583 29.583 0 0 1 11.379 16.08l-6.129 6.126" fill="#fad36c"/><path d="M396.43 487.11a22.93 22.93 0 0 1-4.73-.92 22.414 22.414 0 0 1-12.313-9.493l16.37-16.37v4.492a2.589 2.589 0 0 0 2.588 2.587h.017c.241-.002.482-.038.718-.107h.005c.003-.003.008-.003.013-.005l.015-.006.02-.005c0-.002.003-.002.003-.002a2.57 2.57 0 0 0 .633-.303l7.384-4.635a2.59 2.59 0 0 0 .82-3.566 2.594 2.594 0 0 0-3.566-.817l-3.475 2.18v-4.986l9.293-9.293a22.383 22.383 0 0 1 8.963 10.864 21.747 21.747 0 0 1 1.442 6.187l-24.2 24.197" fill="#f4faf9"/><path d="M398.345 467.406a2.589 2.589 0 0 1-2.588-2.587v-4.492l5.175-5.173v4.986l-3.96 2.485a2.588 2.588 0 0 0 1.373 4.781m.007 0h.01-.01m.728-.107h.005-.005m.018-.005l.015-.006-.015.006m.015-.006l.02-.005a.08.08 0 0 0-.02.005m.023-.007c.2-.064.395-.154.582-.272l.051-.03a2.57 2.57 0 0 1-.633.302" fill="#d3e7dc"/><path d="M398.347 467.406h-.002a2.588 2.588 0 0 1-1.373-4.781l3.96-2.485 3.475-2.18a2.594 2.594 0 0 1 3.567.817 2.59 2.59 0 0 1-.82 3.566l-7.385 4.635-.051.031a2.545 2.545 0 0 1-.582.272s-.002 0-.002.002a.08.08 0 0 0-.02.005c-.006.003-.011.003-.016.006-.005.002-.01.002-.013.005h-.005a2.634 2.634 0 0 1-.718.107h-.015" fill="#d3e7dc"/><path d="M494.003 628.634h-5.508V610.92h5.508v17.713m0-28.315h-5.508v-.128h5.508v.128" fill="#bbe7c8"/><path d="M488.495 610.921h5.508V600.32h-5.508z" fill="#b1e3c0"/><path d="M488.495 600.191h5.508v-28.192h-5.508z" fill="#80d3b3"/><path d="M488.495 628.634h-51.129v-6.298h48.287v-50.337h2.842v56.635" fill="#88d5a4"/><path d="M485.653 622.336h-48.287v-50.337h48.287v50.337m-25.63-22.204a17.062 17.062 0 0 0-9.73 8.786c-1.592 3.369.848 7.264 4.576 7.264h21.63c3.727 0 6.17-3.895 4.576-7.264a17.062 17.062 0 0 0-9.732-8.786 7.176 7.176 0 0 0 1.553-4.47v-4.328a7.214 7.214 0 1 0-14.425 0v4.327a7.19 7.19 0 0 0 1.553 4.471" fill="#b0e3c7"/><path d="M471.343 600.132a16.972 16.972 0 0 0-5.66-.966c-1.985 0-3.889.34-5.66.966a7.19 7.19 0 0 1-1.552-4.47v-4.328a7.214 7.214 0 1 1 14.425 0v4.327a7.173 7.173 0 0 1-1.553 4.471" fill="#f0fafa"/><path d="M476.499 616.182h-21.63c-3.728 0-6.168-3.895-4.576-7.264a17.062 17.062 0 0 1 9.73-8.786 16.961 16.961 0 0 1 5.66-.966c1.984 0 3.89.34 5.66.966a17.062 17.062 0 0 1 9.732 8.786c1.593 3.369-.849 7.264-4.576 7.264" fill="#f0fafa"/><path d="M455.737 417.48h16.882v110.916h-16.882V417.48" fill="#a1ddb3"/><path d="M487.38 482.982v-40.536a3.316 3.316 0 0 1 3.316 3.315v33.905a3.314 3.314 0 0 1-3.316 3.316" fill="#5dc585"/><path d="M336.43 520.738v-9.275h2.823v.963l-2.823 8.312m2.823-103.256h-2.823v-32.95c0-4.38 3.561-7.942 7.917-7.942h41.225v.003h-41.218c-4.37 0-7.917 3.571-7.917 7.942v19.345h39.834l-.002.007h-37.016v13.595" fill="#3eb57a"/><path d="M376.271 403.88h-39.834v-19.345c0-4.37 3.546-7.942 7.917-7.942h41.218l-9.3 27.287" fill="#3eb57a"/><path d="M339.253 512.426v-.963h.328l-.328.963m32.38-94.944h-32.38v-13.595h37.016l-4.635 13.595" fill="#a2cbdb"/><path d="M336.43 511.463h-6.178v-81.126a321.74 321.74 0 0 0 6.178 9.275v71.85m0-76.31a310.178 310.178 0 0 1-6.178-9.522v-8.148h6.178v17.67" fill="#b6c0a9"/><path d="M336.43 439.612a321.74 321.74 0 0 1-6.178-9.275v-4.707a310.178 310.178 0 0 0 6.178 9.521v4.46" fill="#a0bfa1"/><path d="M339.253 511.463h-2.823v-93.98h2.823v93.98" fill="#6fb87f"/><path d="M339.581 511.463h-.328v-93.98h32.38l-.658 1.926-31.722 31.722v54.92l3.3-3.3-2.972 8.712" fill="#aebfb0"/><path d="M339.253 506.052v-54.92l31.722-31.723-28.422 83.343-3.3 3.3" fill="#b2c4bc"/><path d="M260.664 662.58h249.281a5.302 5.302 0 1 0 0-10.605H260.664a5.3 5.3 0 0 0-5.302 5.304 5.3 5.3 0 0 0 5.302 5.301" fill="#e4e4e3"/><path d="M306.024 643.113l4.469-21.407-9.106-1.363-2.565 22.308 7.202.462" fill="#dadfee"/><path d="M297.08 640.053c-.587.085-1.146.303-1.594.672-3.118 2.587-12.593 7.215-17.456 7.917-5.214.753-5.48 3.333 1.852 3.333 7.338 0 12.716-.653 15.988-.571 3.27.084 2.42.571 10.464.571 6.173 0 4.24-7.873 2.032-11.532-.674-1.115-1.578-1.745-2.918-1.555l-8.368 1.165" fill="#354c87"/><path d="M357.07 605.482l-16.8-13.997-5.48 7.4 18.491 12.744 3.79-6.147" fill="#dadfee"/><path d="M350.34 610.693c-.559 1.322.012 3.698.21 4.243 1.388 3.805 2.562 14.287 1.59 19.104-1.045 5.163 1.297 6.282 3.762-.625 2.465-6.913 3.656-12.196 4.835-15.25 1.179-3.052 1.184-2.147 4.056-9.662 1.442-3.774-4.569-7.108-8.758-6.255-1.276.257-1.634.533-2.447 2.227-.81 1.694-2.687 4.899-3.248 6.218" fill="#354c87"/><path d="M302.43 308.36c-3.126-2.614-7.738-2.178-10.352.922-6.533 7.814-13.63 15.398-19.677 21.163-5.842 5.586-9.242 9.257-13.067 10.3-9.916-2.306-27.467-27.517-36.434-44.223l-.195-.292a7.719 7.719 0 0 0-.477-.705l-.415-.491-.535-.528-.546-.438-.579-.382-.669-.349-.597-.243a7.174 7.174 0 0 0-.802-.23l-.346-.1c-3.433-.78-8.837 1.493-13.615-.38-5.445-2.134-12.547-4.87-12.011-.853.73 5.47 3.82 9.519 7.581 11.023 4.002 1.6 14.361.345 17.774 1.001 6.946 12.383 21.622 49.104 40.354 51.82.41.077.82.103 1.281.103 5.663 0 13.682-4.945 23.982-14.758 5.996-5.714 12.76-13.067 20.267-22.035 2.588-3.1 2.178-7.738-.922-10.326" fill="#f8a075"/><path d="M303.495 250.631c-9.785-5.258-11.304 13.92-8.15 20.182 3.398 6.747 13.408 12.616 16.17 7.146 3.587-7.107 5.176-20.238-8.02-27.328" fill="#e0611c"/><path d="M303.352 318.685c-7.507 8.968-14.271 16.321-20.267 22.035l-10.684-10.275c6.047-5.765 13.144-13.349 19.677-21.163 2.614-3.1 7.226-3.536 10.352-.923 3.1 2.588 3.51 7.226.922 10.326" fill="#ed7a51"/><path d="M305.973 321.086c-6.25 5.977-12.719 12.357-18.952 18.616l-14.725-14.163a1486.956 1486.956 0 0 1 19.598-19.15 10.164 10.164 0 0 1 14.386.308c3.91 4.027 3.757 10.497-.307 14.389" fill="#4ec3bb"/><path d="M334.508 296.317c.077 6.482-.717 14.681-4.356 20.446-4.458 7.098-5.33 8.532-5.432 8.686a8.663 8.663 0 0 1-7.43 4.202 8.71 8.71 0 0 1-4.432-1.23c-4.1-2.46-5.458-7.763-2.998-11.863 0 0 .692-1.204 5.637-9.019.845-1.332 1.332-3.894 1.537-6.892.256-3.638.077-7.968-.436-11.555-.717-4.74 2.563-9.147 7.303-9.839 4.74-.717 9.12 2.537 9.838 7.277.205 1.383.692 5.15.769 9.787" fill="#f8a075"/><path d="M355.73 310.54c-4.294 24.604-12.672 86.38-10.853 111.234H283.16s3.72-91.549 9.568-113.855c.702-2.673 3.136-4.523 5.898-4.523h51.087c3.79 0 6.67 3.413 6.018 7.144" fill="#5fcacc"/><path d="M342.194 461.949s7.515-13.782 2.683-40.175H283.16s-.876 20.09.541 40.175h58.494" fill="#354c87"/><path d="M354.8 599.832l-9.223 8.917c-4.664-2.332-12.196-7.277-20.523-13.785-7.764-6.072-16.245-13.477-23.7-21.394-10.813-11.402-19.576-23.828-21.215-34.666-3.716-24.597 3.228-82.374 4.1-88.703.947-6.764 7.84-9.89 14.578-8.942 6.764.948 13.272 7.508 12.35 14.246-2.255 16.219-9.327 61.877-6.636 79.735.128.871.384 1.845.717 2.87 2.767 8.096 11.965 20.676 22.7 33.282 8.789 10.275 18.628 20.549 26.852 28.44" fill="#354c87"/><path d="M327.949 571.392c-.871 7.61-1.87 15.758-2.895 23.572-7.764-6.072-16.245-13.477-23.7-21.394 1.05-11.607 2.126-22.342 3.074-29.286.282-1.998.538-4.048.82-6.174 2.767 8.096 11.965 20.676 22.7 33.282" fill="#263c61"/><path d="M296.496 632.354c.133-.676 4.806-65.102 7.927-88.075 4.927-36.288 12.444-94.603 12.547-95.202 1.15-6.716 10.89-10.628 17.59-9.463 6.715 1.148 11.227 7.523 10.076 14.241-.1.594-10.108 59.255-17.474 95.549-2.083 25.621-15.7 82.968-16.254 85.753" fill="#354c87"/><path d="M334.508 296.317a27.42 27.42 0 0 1-15.014 4.458c-.82 0-1.64-.025-2.46-.128.256-3.638.077-7.968-.436-11.555-.717-4.74 2.563-9.147 7.303-9.839 4.74-.717 9.12 2.537 9.838 7.277.205 1.383.692 5.15.769 9.787" fill="#ed7a51"/><path d="M295.614 269.002c0 15.22 8.34 27.559 23.38 27.559 11.85 0 30.12-12.34 30.12-27.56 0-15.221-12.341-27.56-27.56-27.56-15.222 0-25.94 12.339-25.94 27.56m93.853 102.362c.179-6.251-7.79-21.138-16.86-35.973-5.61-9.198-11.657-18.396-16.474-25.519-2.28-3.356-6.816-4.228-10.198-1.973a7.365 7.365 0 0 0-1.973 10.198c5.483 8.147 11.223 17.038 16.245 25.237 6.507 10.659 10.735 17.692 12.734 22.74-7.561 2.792-27.16 8.416-44.608 9.953a7.327 7.327 0 0 0-5.012 2.652l-.01.016c-.558.676-5.508 6.856-8.04 14.783-1.235 3.859-2.764 12.24 1.24 11.643 4.028-.6 6.157-2.383 8.089-3.041 3.041-1.043 3.646-1.02 4.643-4.138.96-3.008.794-12.03 2-13.88 56.084-5.306 58.098-7.548 58.224-12.698" fill="#f8a075"/><path d="M308.266 635.157l-1.268-.205c.102-.628 9.575-58.845 15.032-87.122 5.45-28.255 15.076-95.471 15.173-96.148 2.668-9.623 2.068-18.44.848-30.807l1.279-.123c1.002 10.18 2.04 20.707-.874 31.192-.082.594-9.713 67.843-15.17 96.127-5.453 28.261-14.92 86.458-15.02 87.086" fill="#7192c7"/><path d="M345.833 246.977c-8.174-7.525-14.41 10.674-12.911 17.523 1.612 7.38 9.852 15.555 13.884 10.943 5.245-5.993 10.044-18.32-.973-28.466m-26.416 48.326c5.004-3.995-4.815-9.147-8.85-8.896-4.343.271-9.726 4.248-7.45 6.95 2.95 3.514 9.551 7.331 16.3 1.946" fill="#e0611c"/><path d="M340.34 251.49c-6.706 4.78-41.316 5.518-47.132-3.006 0 0 3.49.74 6.872-.318 0 0-6.66-2.749-8.988-5.918 0 0 8.248.5 15.965-2.711 7.72-3.21 23.303-7.618 33.364 1.053 10.062 8.668-.082 10.9-.082 10.9" fill="#e0611c"/><path d="M350.957 277.047a9.78 9.78 0 0 1-4.842 6.68c-2.847 1.588-6.244-1.01-5.62-4.21l1.697-8.693c.625-3.2 4.748-4.33 6.787-1.789a9.777 9.777 0 0 1 1.978 8.012m-41.594 26.349c-1.538 5.37 3.54 8.54 12.44 7.287 6.212-.876 12.882-3.69 17.98-7.287h-30.42" fill="#f8a075"/><path d="M372.607 335.39l-12.4 7.943c-5.022-8.199-10.762-17.09-16.245-25.237a7.365 7.365 0 0 1 1.973-10.198c3.382-2.255 7.917-1.383 10.198 1.973 4.817 7.123 10.863 16.321 16.474 25.52" fill="#ed7a51"/><path d="M341.633 319.58c4.968 7.076 10.077 14.593 14.979 21.942l17.192-11.033a1491.677 1491.677 0 0 0-15.504-22.593 10.165 10.165 0 0 0-14.174-2.49c-4.617 3.19-5.724 9.564-2.493 14.173" fill="#5fcacc"/><path d="M312.909 462.449h-1.281v-41.636h1.28v41.636" fill="#7192c7"/><path d="M312.268 455.608a7.045 7.045 0 0 1-7.038-7.039v-27.756h1.281v27.756a5.764 5.764 0 0 0 5.757 5.757v1.282" fill="#7192c7"/><path d="M216.802 287.765l-27.567-14.328 14.325-27.564 27.567 14.325-14.325 27.567m-32.358-8.937l-5.12-2.662 2.66-5.117 2.275 1.181-1.48 2.847 2.846 1.478-1.181 2.273m53.821-16.127l-2.273-1.18 1.481-2.845-2.849-1.478 1.181-2.275 5.12 2.66-2.66 5.118" fill="#fddf9b"/><path d="M241.442 282.125l-19.288 1.058-.75-13.661 19.287-1.058.751 13.661" fill="#5fcacc"/><path d="M220.914 250.252l-8.717-6.014 6.011-8.714 8.714 6.011-6.008 8.717" fill="#a0e0ee"/></svg>